%TF.GenerationSoftware,KiCad,Pcbnew,8.0.5*%
%TF.CreationDate,2024-10-27T11:23:10+01:00*%
%TF.ProjectId,hpdl display,6870646c-2064-4697-9370-6c61792e6b69,rev?*%
%TF.SameCoordinates,Original*%
%TF.FileFunction,Soldermask,Bot*%
%TF.FilePolarity,Negative*%
%FSLAX46Y46*%
G04 Gerber Fmt 4.6, Leading zero omitted, Abs format (unit mm)*
G04 Created by KiCad (PCBNEW 8.0.5) date 2024-10-27 11:23:10*
%MOMM*%
%LPD*%
G01*
G04 APERTURE LIST*
%ADD10R,1.524000X1.524000*%
%ADD11C,1.524000*%
%ADD12R,1.700000X3.500000*%
G04 APERTURE END LIST*
D10*
%TO.C,U1*%
X133740000Y-90250000D03*
D11*
X136280000Y-90250000D03*
X138820000Y-90250000D03*
X141360000Y-90250000D03*
X143900000Y-90250000D03*
X146440000Y-90250000D03*
X146440000Y-74950000D03*
X143900000Y-74950000D03*
X141360000Y-74950000D03*
X138820000Y-74950000D03*
X136280000Y-74950000D03*
X133740000Y-74950000D03*
%TD*%
D10*
%TO.C,U3*%
X168920000Y-90300000D03*
D11*
X171460000Y-90300000D03*
X174000000Y-90300000D03*
X176540000Y-90300000D03*
X179080000Y-90300000D03*
X181620000Y-90300000D03*
X181620000Y-75000000D03*
X179080000Y-75000000D03*
X176540000Y-75000000D03*
X174000000Y-75000000D03*
X171460000Y-75000000D03*
X168920000Y-75000000D03*
%TD*%
D10*
%TO.C,U2*%
X151380000Y-90300000D03*
D11*
X153920000Y-90300000D03*
X156460000Y-90300000D03*
X159000000Y-90300000D03*
X161540000Y-90300000D03*
X164080000Y-90300000D03*
X164080000Y-75000000D03*
X161540000Y-75000000D03*
X159000000Y-75000000D03*
X156460000Y-75000000D03*
X153920000Y-75000000D03*
X151380000Y-75000000D03*
%TD*%
D12*
%TO.C,U4*%
X182000000Y-97900000D03*
X179460000Y-97900000D03*
X176920000Y-97900000D03*
X174380000Y-97900000D03*
X171840000Y-97900000D03*
X169300000Y-97900000D03*
X166760000Y-97900000D03*
X164220000Y-97900000D03*
X161680000Y-97900000D03*
X159140000Y-97900000D03*
X156600000Y-97900000D03*
X154060000Y-97900000D03*
X151520000Y-97900000D03*
X148980000Y-97900000D03*
X146440000Y-97900000D03*
X143900000Y-97900000D03*
X141360000Y-97900000D03*
X138820000Y-97900000D03*
X136280000Y-97900000D03*
X133740000Y-97900000D03*
X133740000Y-78320000D03*
X136280000Y-78320000D03*
X138820000Y-78320000D03*
X141360000Y-78320000D03*
X143900000Y-78320000D03*
X146440000Y-78320000D03*
X148980000Y-78320000D03*
X151520000Y-78320000D03*
X154060000Y-78320000D03*
X156600000Y-78320000D03*
X159140000Y-78320000D03*
X161680000Y-78320000D03*
X164220000Y-78320000D03*
X166760000Y-78320000D03*
X169300000Y-78320000D03*
X171840000Y-78320000D03*
X174380000Y-78320000D03*
X176920000Y-78320000D03*
X179460000Y-78320000D03*
X182000000Y-78320000D03*
%TD*%
M02*
