%TF.GenerationSoftware,KiCad,Pcbnew,8.0.5*%
%TF.CreationDate,2024-10-27T11:23:10+01:00*%
%TF.ProjectId,hpdl display,6870646c-2064-4697-9370-6c61792e6b69,rev?*%
%TF.SameCoordinates,Original*%
%TF.FileFunction,Legend,Top*%
%TF.FilePolarity,Positive*%
%FSLAX46Y46*%
G04 Gerber Fmt 4.6, Leading zero omitted, Abs format (unit mm)*
G04 Created by KiCad (PCBNEW 8.0.5) date 2024-10-27 11:23:10*
%MOMM*%
%LPD*%
G01*
G04 APERTURE LIST*
%ADD10C,0.150000*%
G04 APERTURE END LIST*
D10*
X134478095Y-77974819D02*
X134478095Y-78784342D01*
X134478095Y-78784342D02*
X134525714Y-78879580D01*
X134525714Y-78879580D02*
X134573333Y-78927200D01*
X134573333Y-78927200D02*
X134668571Y-78974819D01*
X134668571Y-78974819D02*
X134859047Y-78974819D01*
X134859047Y-78974819D02*
X134954285Y-78927200D01*
X134954285Y-78927200D02*
X135001904Y-78879580D01*
X135001904Y-78879580D02*
X135049523Y-78784342D01*
X135049523Y-78784342D02*
X135049523Y-77974819D01*
X136049523Y-78974819D02*
X135478095Y-78974819D01*
X135763809Y-78974819D02*
X135763809Y-77974819D01*
X135763809Y-77974819D02*
X135668571Y-78117676D01*
X135668571Y-78117676D02*
X135573333Y-78212914D01*
X135573333Y-78212914D02*
X135478095Y-78260533D01*
X169658095Y-78024819D02*
X169658095Y-78834342D01*
X169658095Y-78834342D02*
X169705714Y-78929580D01*
X169705714Y-78929580D02*
X169753333Y-78977200D01*
X169753333Y-78977200D02*
X169848571Y-79024819D01*
X169848571Y-79024819D02*
X170039047Y-79024819D01*
X170039047Y-79024819D02*
X170134285Y-78977200D01*
X170134285Y-78977200D02*
X170181904Y-78929580D01*
X170181904Y-78929580D02*
X170229523Y-78834342D01*
X170229523Y-78834342D02*
X170229523Y-78024819D01*
X170610476Y-78024819D02*
X171229523Y-78024819D01*
X171229523Y-78024819D02*
X170896190Y-78405771D01*
X170896190Y-78405771D02*
X171039047Y-78405771D01*
X171039047Y-78405771D02*
X171134285Y-78453390D01*
X171134285Y-78453390D02*
X171181904Y-78501009D01*
X171181904Y-78501009D02*
X171229523Y-78596247D01*
X171229523Y-78596247D02*
X171229523Y-78834342D01*
X171229523Y-78834342D02*
X171181904Y-78929580D01*
X171181904Y-78929580D02*
X171134285Y-78977200D01*
X171134285Y-78977200D02*
X171039047Y-79024819D01*
X171039047Y-79024819D02*
X170753333Y-79024819D01*
X170753333Y-79024819D02*
X170658095Y-78977200D01*
X170658095Y-78977200D02*
X170610476Y-78929580D01*
X152118095Y-78024819D02*
X152118095Y-78834342D01*
X152118095Y-78834342D02*
X152165714Y-78929580D01*
X152165714Y-78929580D02*
X152213333Y-78977200D01*
X152213333Y-78977200D02*
X152308571Y-79024819D01*
X152308571Y-79024819D02*
X152499047Y-79024819D01*
X152499047Y-79024819D02*
X152594285Y-78977200D01*
X152594285Y-78977200D02*
X152641904Y-78929580D01*
X152641904Y-78929580D02*
X152689523Y-78834342D01*
X152689523Y-78834342D02*
X152689523Y-78024819D01*
X153118095Y-78120057D02*
X153165714Y-78072438D01*
X153165714Y-78072438D02*
X153260952Y-78024819D01*
X153260952Y-78024819D02*
X153499047Y-78024819D01*
X153499047Y-78024819D02*
X153594285Y-78072438D01*
X153594285Y-78072438D02*
X153641904Y-78120057D01*
X153641904Y-78120057D02*
X153689523Y-78215295D01*
X153689523Y-78215295D02*
X153689523Y-78310533D01*
X153689523Y-78310533D02*
X153641904Y-78453390D01*
X153641904Y-78453390D02*
X153070476Y-79024819D01*
X153070476Y-79024819D02*
X153689523Y-79024819D01*
M02*
