%TF.GenerationSoftware,KiCad,Pcbnew,8.0.5*%
%TF.CreationDate,2024-10-27T11:23:10+01:00*%
%TF.ProjectId,hpdl display,6870646c-2064-4697-9370-6c61792e6b69,rev?*%
%TF.SameCoordinates,Original*%
%TF.FileFunction,Copper,L1,Top*%
%TF.FilePolarity,Positive*%
%FSLAX46Y46*%
G04 Gerber Fmt 4.6, Leading zero omitted, Abs format (unit mm)*
G04 Created by KiCad (PCBNEW 8.0.5) date 2024-10-27 11:23:10*
%MOMM*%
%LPD*%
G01*
G04 APERTURE LIST*
%TA.AperFunction,ComponentPad*%
%ADD10R,1.524000X1.524000*%
%TD*%
%TA.AperFunction,ComponentPad*%
%ADD11C,1.524000*%
%TD*%
%TA.AperFunction,ViaPad*%
%ADD12C,0.600000*%
%TD*%
%TA.AperFunction,Conductor*%
%ADD13C,0.200000*%
%TD*%
G04 APERTURE END LIST*
D10*
%TO.P,U1,1,D5*%
%TO.N,/D5*%
X133740000Y-90250000D03*
D11*
%TO.P,U1,2,D4*%
%TO.N,/D4*%
X136280000Y-90250000D03*
%TO.P,U1,3,WR*%
%TO.N,/WR0*%
X138820000Y-90250000D03*
%TO.P,U1,4,A1*%
%TO.N,/A1*%
X141360000Y-90250000D03*
%TO.P,U1,5,A0*%
%TO.N,/A0*%
X143900000Y-90250000D03*
%TO.P,U1,6,VDD*%
%TO.N,VCC*%
X146440000Y-90250000D03*
%TO.P,U1,7,GND*%
%TO.N,GND*%
X146440000Y-74950000D03*
%TO.P,U1,8,D0*%
%TO.N,/D0*%
X143900000Y-74950000D03*
%TO.P,U1,9,D1*%
%TO.N,/D1*%
X141360000Y-74950000D03*
%TO.P,U1,10,D2*%
%TO.N,/D2*%
X138820000Y-74950000D03*
%TO.P,U1,11,D3*%
%TO.N,/D3*%
X136280000Y-74950000D03*
%TO.P,U1,12,D6*%
%TO.N,/D6*%
X133740000Y-74950000D03*
%TD*%
D10*
%TO.P,U3,1,D5*%
%TO.N,/D5*%
X168920000Y-90300000D03*
D11*
%TO.P,U3,2,D4*%
%TO.N,/D4*%
X171460000Y-90300000D03*
%TO.P,U3,3,WR*%
%TO.N,/WR2*%
X174000000Y-90300000D03*
%TO.P,U3,4,A1*%
%TO.N,/A1*%
X176540000Y-90300000D03*
%TO.P,U3,5,A0*%
%TO.N,/A0*%
X179080000Y-90300000D03*
%TO.P,U3,6,VDD*%
%TO.N,VCC*%
X181620000Y-90300000D03*
%TO.P,U3,7,GND*%
%TO.N,GND*%
X181620000Y-75000000D03*
%TO.P,U3,8,D0*%
%TO.N,/D0*%
X179080000Y-75000000D03*
%TO.P,U3,9,D1*%
%TO.N,/D1*%
X176540000Y-75000000D03*
%TO.P,U3,10,D2*%
%TO.N,/D2*%
X174000000Y-75000000D03*
%TO.P,U3,11,D3*%
%TO.N,/D3*%
X171460000Y-75000000D03*
%TO.P,U3,12,D6*%
%TO.N,/D6*%
X168920000Y-75000000D03*
%TD*%
D10*
%TO.P,U2,1,D5*%
%TO.N,/D5*%
X151380000Y-90300000D03*
D11*
%TO.P,U2,2,D4*%
%TO.N,/D4*%
X153920000Y-90300000D03*
%TO.P,U2,3,WR*%
%TO.N,/WR1*%
X156460000Y-90300000D03*
%TO.P,U2,4,A1*%
%TO.N,/A1*%
X159000000Y-90300000D03*
%TO.P,U2,5,A0*%
%TO.N,/A0*%
X161540000Y-90300000D03*
%TO.P,U2,6,VDD*%
%TO.N,VCC*%
X164080000Y-90300000D03*
%TO.P,U2,7,GND*%
%TO.N,GND*%
X164080000Y-75000000D03*
%TO.P,U2,8,D0*%
%TO.N,/D0*%
X161540000Y-75000000D03*
%TO.P,U2,9,D1*%
%TO.N,/D1*%
X159000000Y-75000000D03*
%TO.P,U2,10,D2*%
%TO.N,/D2*%
X156460000Y-75000000D03*
%TO.P,U2,11,D3*%
%TO.N,/D3*%
X153920000Y-75000000D03*
%TO.P,U2,12,D6*%
%TO.N,/D6*%
X151380000Y-75000000D03*
%TD*%
D12*
%TO.N,GND*%
X177000000Y-95000000D03*
X164250000Y-95000000D03*
X153000000Y-95000000D03*
X142250000Y-95000000D03*
%TO.N,VCC*%
X182750000Y-81000000D03*
%TO.N,/D4*%
X171500000Y-84500000D03*
X153750000Y-84500000D03*
X136250000Y-84500000D03*
%TO.N,/D3*%
X168750000Y-83000000D03*
X137500000Y-81000000D03*
X155250000Y-83000000D03*
%TO.N,/A0*%
X144000000Y-86750000D03*
X161500000Y-86750000D03*
X179000000Y-86750000D03*
%TO.N,/D1*%
X178500000Y-81750000D03*
X142750000Y-81750000D03*
X160500000Y-81750000D03*
%TO.N,/A1*%
X176500000Y-86000000D03*
X159000000Y-86000000D03*
X141250000Y-86250000D03*
%TO.N,/D5*%
X133750000Y-87500000D03*
X151250000Y-87500000D03*
X168920000Y-87350000D03*
%TO.N,/D2*%
X158000000Y-82250000D03*
X140000000Y-81000000D03*
X174250000Y-82350000D03*
%TO.N,/D0*%
X145250000Y-81000000D03*
X180250000Y-81000000D03*
X163000000Y-81000000D03*
%TO.N,/WR2*%
X174000000Y-85250000D03*
X147750000Y-85250000D03*
%TD*%
D13*
%TO.N,GND*%
X153000000Y-95000000D02*
X164250000Y-95000000D01*
X164250000Y-95000000D02*
X177000000Y-95000000D01*
X142250000Y-95000000D02*
X153000000Y-95000000D01*
%TO.N,VCC*%
X182750000Y-81000000D02*
X181620000Y-82130000D01*
X181620000Y-82130000D02*
X181620000Y-90300000D01*
%TO.N,/D4*%
X136500000Y-84250000D02*
X136250000Y-84500000D01*
X153750000Y-84500000D02*
X153500000Y-84250000D01*
X171500000Y-84500000D02*
X153750000Y-84500000D01*
X153500000Y-84250000D02*
X136500000Y-84250000D01*
%TO.N,/D3*%
X137500000Y-81000000D02*
X138000000Y-81000000D01*
X168750000Y-83000000D02*
X155250000Y-83000000D01*
X138000000Y-81000000D02*
X140000000Y-83000000D01*
X140000000Y-83000000D02*
X155250000Y-83000000D01*
%TO.N,/A0*%
X179000000Y-86750000D02*
X161500000Y-86750000D01*
X161500000Y-86750000D02*
X144000000Y-86750000D01*
%TO.N,/D1*%
X142850000Y-81650000D02*
X142750000Y-81750000D01*
X160500000Y-81750000D02*
X160400000Y-81650000D01*
X178500000Y-81750000D02*
X160500000Y-81750000D01*
X160400000Y-81650000D02*
X142850000Y-81650000D01*
%TO.N,/A1*%
X176500000Y-86000000D02*
X159000000Y-86000000D01*
X141250000Y-86250000D02*
X141500000Y-86000000D01*
X141500000Y-86000000D02*
X159000000Y-86000000D01*
%TO.N,/D5*%
X151250000Y-87500000D02*
X133750000Y-87500000D01*
X168920000Y-87350000D02*
X151400000Y-87350000D01*
X151400000Y-87350000D02*
X151250000Y-87500000D01*
%TO.N,/D2*%
X141350000Y-82350000D02*
X157900000Y-82350000D01*
X158100000Y-82350000D02*
X158000000Y-82250000D01*
X157900000Y-82350000D02*
X158000000Y-82250000D01*
X174250000Y-82350000D02*
X158100000Y-82350000D01*
X140000000Y-81000000D02*
X141350000Y-82350000D01*
%TO.N,/D0*%
X163000000Y-81000000D02*
X145250000Y-81000000D01*
X180250000Y-81000000D02*
X163000000Y-81000000D01*
%TO.N,/WR2*%
X147750000Y-85250000D02*
X174000000Y-85250000D01*
%TD*%
%TA.AperFunction,Conductor*%
%TO.N,VCC*%
G36*
X183692539Y-73020185D02*
G01*
X183738294Y-73072989D01*
X183749500Y-73124500D01*
X183749500Y-99875500D01*
X183729815Y-99942539D01*
X183677011Y-99988294D01*
X183625500Y-99999500D01*
X132124500Y-99999500D01*
X132057461Y-99979815D01*
X132011706Y-99927011D01*
X132000500Y-99875500D01*
X132000500Y-94999996D01*
X141444435Y-94999996D01*
X141444435Y-95000003D01*
X141464630Y-95179249D01*
X141464631Y-95179254D01*
X141524211Y-95349523D01*
X141620184Y-95502262D01*
X141747738Y-95629816D01*
X141900478Y-95725789D01*
X142070745Y-95785368D01*
X142070750Y-95785369D01*
X142249996Y-95805565D01*
X142250000Y-95805565D01*
X142250004Y-95805565D01*
X142429249Y-95785369D01*
X142429252Y-95785368D01*
X142429255Y-95785368D01*
X142599522Y-95725789D01*
X142752262Y-95629816D01*
X142752267Y-95629810D01*
X142755097Y-95627555D01*
X142757275Y-95626665D01*
X142758158Y-95626111D01*
X142758255Y-95626265D01*
X142819783Y-95601145D01*
X142832412Y-95600500D01*
X152417588Y-95600500D01*
X152484627Y-95620185D01*
X152494903Y-95627555D01*
X152497736Y-95629814D01*
X152497738Y-95629816D01*
X152650478Y-95725789D01*
X152820745Y-95785368D01*
X152820750Y-95785369D01*
X152999996Y-95805565D01*
X153000000Y-95805565D01*
X153000004Y-95805565D01*
X153179249Y-95785369D01*
X153179252Y-95785368D01*
X153179255Y-95785368D01*
X153349522Y-95725789D01*
X153502262Y-95629816D01*
X153502267Y-95629810D01*
X153505097Y-95627555D01*
X153507275Y-95626665D01*
X153508158Y-95626111D01*
X153508255Y-95626265D01*
X153569783Y-95601145D01*
X153582412Y-95600500D01*
X163667588Y-95600500D01*
X163734627Y-95620185D01*
X163744903Y-95627555D01*
X163747736Y-95629814D01*
X163747738Y-95629816D01*
X163900478Y-95725789D01*
X164070745Y-95785368D01*
X164070750Y-95785369D01*
X164249996Y-95805565D01*
X164250000Y-95805565D01*
X164250004Y-95805565D01*
X164429249Y-95785369D01*
X164429252Y-95785368D01*
X164429255Y-95785368D01*
X164599522Y-95725789D01*
X164752262Y-95629816D01*
X164752267Y-95629810D01*
X164755097Y-95627555D01*
X164757275Y-95626665D01*
X164758158Y-95626111D01*
X164758255Y-95626265D01*
X164819783Y-95601145D01*
X164832412Y-95600500D01*
X176417588Y-95600500D01*
X176484627Y-95620185D01*
X176494903Y-95627555D01*
X176497736Y-95629814D01*
X176497738Y-95629816D01*
X176650478Y-95725789D01*
X176820745Y-95785368D01*
X176820750Y-95785369D01*
X176999996Y-95805565D01*
X177000000Y-95805565D01*
X177000004Y-95805565D01*
X177179249Y-95785369D01*
X177179252Y-95785368D01*
X177179255Y-95785368D01*
X177349522Y-95725789D01*
X177502262Y-95629816D01*
X177629816Y-95502262D01*
X177725789Y-95349522D01*
X177785368Y-95179255D01*
X177805565Y-95000000D01*
X177785368Y-94820745D01*
X177725789Y-94650478D01*
X177629816Y-94497738D01*
X177502262Y-94370184D01*
X177349523Y-94274211D01*
X177179254Y-94214631D01*
X177179249Y-94214630D01*
X177000004Y-94194435D01*
X176999996Y-94194435D01*
X176820750Y-94214630D01*
X176820745Y-94214631D01*
X176650476Y-94274211D01*
X176497736Y-94370185D01*
X176494903Y-94372445D01*
X176492724Y-94373334D01*
X176491842Y-94373889D01*
X176491744Y-94373734D01*
X176430217Y-94398855D01*
X176417588Y-94399500D01*
X164832412Y-94399500D01*
X164765373Y-94379815D01*
X164755097Y-94372445D01*
X164752263Y-94370185D01*
X164752262Y-94370184D01*
X164695496Y-94334515D01*
X164599523Y-94274211D01*
X164429254Y-94214631D01*
X164429249Y-94214630D01*
X164250004Y-94194435D01*
X164249996Y-94194435D01*
X164070750Y-94214630D01*
X164070745Y-94214631D01*
X163900476Y-94274211D01*
X163747736Y-94370185D01*
X163744903Y-94372445D01*
X163742724Y-94373334D01*
X163741842Y-94373889D01*
X163741744Y-94373734D01*
X163680217Y-94398855D01*
X163667588Y-94399500D01*
X153582412Y-94399500D01*
X153515373Y-94379815D01*
X153505097Y-94372445D01*
X153502263Y-94370185D01*
X153502262Y-94370184D01*
X153445496Y-94334515D01*
X153349523Y-94274211D01*
X153179254Y-94214631D01*
X153179249Y-94214630D01*
X153000004Y-94194435D01*
X152999996Y-94194435D01*
X152820750Y-94214630D01*
X152820745Y-94214631D01*
X152650476Y-94274211D01*
X152497736Y-94370185D01*
X152494903Y-94372445D01*
X152492724Y-94373334D01*
X152491842Y-94373889D01*
X152491744Y-94373734D01*
X152430217Y-94398855D01*
X152417588Y-94399500D01*
X142832412Y-94399500D01*
X142765373Y-94379815D01*
X142755097Y-94372445D01*
X142752263Y-94370185D01*
X142752262Y-94370184D01*
X142695496Y-94334515D01*
X142599523Y-94274211D01*
X142429254Y-94214631D01*
X142429249Y-94214630D01*
X142250004Y-94194435D01*
X142249996Y-94194435D01*
X142070750Y-94214630D01*
X142070745Y-94214631D01*
X141900476Y-94274211D01*
X141747737Y-94370184D01*
X141620184Y-94497737D01*
X141524211Y-94650476D01*
X141464631Y-94820745D01*
X141464630Y-94820750D01*
X141444435Y-94999996D01*
X132000500Y-94999996D01*
X132000500Y-89440135D01*
X132477500Y-89440135D01*
X132477500Y-91059870D01*
X132477501Y-91059876D01*
X132483908Y-91119483D01*
X132534202Y-91254328D01*
X132534206Y-91254335D01*
X132620452Y-91369544D01*
X132620455Y-91369547D01*
X132735664Y-91455793D01*
X132735671Y-91455797D01*
X132870517Y-91506091D01*
X132870516Y-91506091D01*
X132877444Y-91506835D01*
X132930127Y-91512500D01*
X134549872Y-91512499D01*
X134609483Y-91506091D01*
X134744331Y-91455796D01*
X134859546Y-91369546D01*
X134945796Y-91254331D01*
X134996091Y-91119483D01*
X135002500Y-91059873D01*
X135002499Y-91019920D01*
X135022182Y-90952884D01*
X135074985Y-90907128D01*
X135144143Y-90897183D01*
X135207700Y-90926206D01*
X135228073Y-90948796D01*
X135309174Y-91064620D01*
X135309175Y-91064621D01*
X135465378Y-91220824D01*
X135465384Y-91220829D01*
X135646333Y-91347531D01*
X135646335Y-91347532D01*
X135646338Y-91347534D01*
X135846550Y-91440894D01*
X136059932Y-91498070D01*
X136217123Y-91511822D01*
X136279998Y-91517323D01*
X136280000Y-91517323D01*
X136280002Y-91517323D01*
X136335151Y-91512498D01*
X136500068Y-91498070D01*
X136713450Y-91440894D01*
X136913662Y-91347534D01*
X137094620Y-91220826D01*
X137250826Y-91064620D01*
X137377534Y-90883662D01*
X137437618Y-90754811D01*
X137483790Y-90702371D01*
X137550983Y-90683219D01*
X137617865Y-90703435D01*
X137662382Y-90754811D01*
X137722464Y-90883658D01*
X137722468Y-90883666D01*
X137849170Y-91064615D01*
X137849175Y-91064621D01*
X138005378Y-91220824D01*
X138005384Y-91220829D01*
X138186333Y-91347531D01*
X138186335Y-91347532D01*
X138186338Y-91347534D01*
X138386550Y-91440894D01*
X138599932Y-91498070D01*
X138757123Y-91511822D01*
X138819998Y-91517323D01*
X138820000Y-91517323D01*
X138820002Y-91517323D01*
X138875151Y-91512498D01*
X139040068Y-91498070D01*
X139253450Y-91440894D01*
X139453662Y-91347534D01*
X139634620Y-91220826D01*
X139790826Y-91064620D01*
X139917534Y-90883662D01*
X139977618Y-90754811D01*
X140023790Y-90702371D01*
X140090983Y-90683219D01*
X140157865Y-90703435D01*
X140202382Y-90754811D01*
X140262464Y-90883658D01*
X140262468Y-90883666D01*
X140389170Y-91064615D01*
X140389175Y-91064621D01*
X140545378Y-91220824D01*
X140545384Y-91220829D01*
X140726333Y-91347531D01*
X140726335Y-91347532D01*
X140726338Y-91347534D01*
X140926550Y-91440894D01*
X141139932Y-91498070D01*
X141297123Y-91511822D01*
X141359998Y-91517323D01*
X141360000Y-91517323D01*
X141360002Y-91517323D01*
X141415151Y-91512498D01*
X141580068Y-91498070D01*
X141793450Y-91440894D01*
X141993662Y-91347534D01*
X142174620Y-91220826D01*
X142330826Y-91064620D01*
X142457534Y-90883662D01*
X142517618Y-90754811D01*
X142563790Y-90702371D01*
X142630983Y-90683219D01*
X142697865Y-90703435D01*
X142742382Y-90754811D01*
X142802464Y-90883658D01*
X142802468Y-90883666D01*
X142929170Y-91064615D01*
X142929175Y-91064621D01*
X143085378Y-91220824D01*
X143085384Y-91220829D01*
X143266333Y-91347531D01*
X143266335Y-91347532D01*
X143266338Y-91347534D01*
X143466550Y-91440894D01*
X143679932Y-91498070D01*
X143837123Y-91511822D01*
X143899998Y-91517323D01*
X143900000Y-91517323D01*
X143900002Y-91517323D01*
X143955151Y-91512498D01*
X144120068Y-91498070D01*
X144333450Y-91440894D01*
X144533662Y-91347534D01*
X144714620Y-91220826D01*
X144870826Y-91064620D01*
X144997534Y-90883662D01*
X145057894Y-90754218D01*
X145104066Y-90701779D01*
X145171259Y-90682627D01*
X145238141Y-90702843D01*
X145282658Y-90754219D01*
X145342898Y-90883405D01*
X145342901Y-90883411D01*
X145388258Y-90948187D01*
X145388259Y-90948188D01*
X145877577Y-90458869D01*
X145889925Y-90480255D01*
X145959745Y-90550075D01*
X146045255Y-90599444D01*
X146140630Y-90625000D01*
X146418553Y-90625000D01*
X145741810Y-91301740D01*
X145806590Y-91347099D01*
X145806592Y-91347100D01*
X146006715Y-91440419D01*
X146006729Y-91440424D01*
X146220013Y-91497573D01*
X146220023Y-91497575D01*
X146439999Y-91516821D01*
X146440001Y-91516821D01*
X146659976Y-91497575D01*
X146659986Y-91497573D01*
X146873270Y-91440424D01*
X146873284Y-91440419D01*
X147073407Y-91347100D01*
X147073417Y-91347094D01*
X147138188Y-91301741D01*
X146461448Y-90625000D01*
X146739370Y-90625000D01*
X146834745Y-90599444D01*
X146920255Y-90550075D01*
X146990075Y-90480255D01*
X147002422Y-90458869D01*
X147491741Y-90948188D01*
X147537094Y-90883417D01*
X147537100Y-90883407D01*
X147630419Y-90683284D01*
X147630424Y-90683270D01*
X147687573Y-90469986D01*
X147687575Y-90469976D01*
X147706821Y-90250000D01*
X147706821Y-90249999D01*
X147687575Y-90030023D01*
X147687573Y-90030013D01*
X147630424Y-89816729D01*
X147630420Y-89816720D01*
X147537096Y-89616586D01*
X147491741Y-89551811D01*
X147491740Y-89551810D01*
X147002421Y-90041129D01*
X146990075Y-90019745D01*
X146920255Y-89949925D01*
X146834745Y-89900556D01*
X146739370Y-89875000D01*
X146461448Y-89875000D01*
X146846312Y-89490135D01*
X150117500Y-89490135D01*
X150117500Y-91109870D01*
X150117501Y-91109876D01*
X150123908Y-91169483D01*
X150174202Y-91304328D01*
X150174206Y-91304335D01*
X150260452Y-91419544D01*
X150260455Y-91419547D01*
X150375664Y-91505793D01*
X150375671Y-91505797D01*
X150510517Y-91556091D01*
X150510516Y-91556091D01*
X150517444Y-91556835D01*
X150570127Y-91562500D01*
X152189872Y-91562499D01*
X152249483Y-91556091D01*
X152384331Y-91505796D01*
X152499546Y-91419546D01*
X152585796Y-91304331D01*
X152636091Y-91169483D01*
X152642500Y-91109873D01*
X152642499Y-91069920D01*
X152662182Y-91002884D01*
X152714985Y-90957128D01*
X152784143Y-90947183D01*
X152847700Y-90976206D01*
X152868073Y-90998796D01*
X152949174Y-91114620D01*
X152949175Y-91114621D01*
X153105378Y-91270824D01*
X153105384Y-91270829D01*
X153286333Y-91397531D01*
X153286335Y-91397532D01*
X153286338Y-91397534D01*
X153486550Y-91490894D01*
X153699932Y-91548070D01*
X153857123Y-91561822D01*
X153919998Y-91567323D01*
X153920000Y-91567323D01*
X153920002Y-91567323D01*
X153975151Y-91562498D01*
X154140068Y-91548070D01*
X154353450Y-91490894D01*
X154553662Y-91397534D01*
X154734620Y-91270826D01*
X154890826Y-91114620D01*
X155017534Y-90933662D01*
X155077618Y-90804811D01*
X155123790Y-90752371D01*
X155190983Y-90733219D01*
X155257865Y-90753435D01*
X155302382Y-90804811D01*
X155362464Y-90933658D01*
X155362468Y-90933666D01*
X155489170Y-91114615D01*
X155489175Y-91114621D01*
X155645378Y-91270824D01*
X155645384Y-91270829D01*
X155826333Y-91397531D01*
X155826335Y-91397532D01*
X155826338Y-91397534D01*
X156026550Y-91490894D01*
X156239932Y-91548070D01*
X156397123Y-91561822D01*
X156459998Y-91567323D01*
X156460000Y-91567323D01*
X156460002Y-91567323D01*
X156515151Y-91562498D01*
X156680068Y-91548070D01*
X156893450Y-91490894D01*
X157093662Y-91397534D01*
X157274620Y-91270826D01*
X157430826Y-91114620D01*
X157557534Y-90933662D01*
X157617618Y-90804811D01*
X157663790Y-90752371D01*
X157730983Y-90733219D01*
X157797865Y-90753435D01*
X157842382Y-90804811D01*
X157902464Y-90933658D01*
X157902468Y-90933666D01*
X158029170Y-91114615D01*
X158029175Y-91114621D01*
X158185378Y-91270824D01*
X158185384Y-91270829D01*
X158366333Y-91397531D01*
X158366335Y-91397532D01*
X158366338Y-91397534D01*
X158566550Y-91490894D01*
X158779932Y-91548070D01*
X158937123Y-91561822D01*
X158999998Y-91567323D01*
X159000000Y-91567323D01*
X159000002Y-91567323D01*
X159055151Y-91562498D01*
X159220068Y-91548070D01*
X159433450Y-91490894D01*
X159633662Y-91397534D01*
X159814620Y-91270826D01*
X159970826Y-91114620D01*
X160097534Y-90933662D01*
X160157618Y-90804811D01*
X160203790Y-90752371D01*
X160270983Y-90733219D01*
X160337865Y-90753435D01*
X160382382Y-90804811D01*
X160442464Y-90933658D01*
X160442468Y-90933666D01*
X160569170Y-91114615D01*
X160569175Y-91114621D01*
X160725378Y-91270824D01*
X160725384Y-91270829D01*
X160906333Y-91397531D01*
X160906335Y-91397532D01*
X160906338Y-91397534D01*
X161106550Y-91490894D01*
X161319932Y-91548070D01*
X161477123Y-91561822D01*
X161539998Y-91567323D01*
X161540000Y-91567323D01*
X161540002Y-91567323D01*
X161595151Y-91562498D01*
X161760068Y-91548070D01*
X161973450Y-91490894D01*
X162173662Y-91397534D01*
X162354620Y-91270826D01*
X162510826Y-91114620D01*
X162637534Y-90933662D01*
X162697894Y-90804218D01*
X162744066Y-90751779D01*
X162811259Y-90732627D01*
X162878141Y-90752843D01*
X162922658Y-90804219D01*
X162982898Y-90933405D01*
X162982901Y-90933411D01*
X163028258Y-90998187D01*
X163028259Y-90998188D01*
X163517577Y-90508869D01*
X163529925Y-90530255D01*
X163599745Y-90600075D01*
X163685255Y-90649444D01*
X163780630Y-90675000D01*
X164058553Y-90675000D01*
X163381810Y-91351740D01*
X163446590Y-91397099D01*
X163446592Y-91397100D01*
X163646715Y-91490419D01*
X163646729Y-91490424D01*
X163860013Y-91547573D01*
X163860023Y-91547575D01*
X164079999Y-91566821D01*
X164080001Y-91566821D01*
X164299976Y-91547575D01*
X164299986Y-91547573D01*
X164513270Y-91490424D01*
X164513284Y-91490419D01*
X164713407Y-91397100D01*
X164713417Y-91397094D01*
X164778188Y-91351741D01*
X164101448Y-90675000D01*
X164379370Y-90675000D01*
X164474745Y-90649444D01*
X164560255Y-90600075D01*
X164630075Y-90530255D01*
X164642422Y-90508869D01*
X165131741Y-90998188D01*
X165177094Y-90933417D01*
X165177100Y-90933407D01*
X165270419Y-90733284D01*
X165270424Y-90733270D01*
X165327573Y-90519986D01*
X165327575Y-90519976D01*
X165346821Y-90300000D01*
X165346821Y-90299999D01*
X165327575Y-90080023D01*
X165327573Y-90080013D01*
X165270424Y-89866729D01*
X165270420Y-89866720D01*
X165177096Y-89666586D01*
X165131741Y-89601811D01*
X165131740Y-89601810D01*
X164642421Y-90091129D01*
X164630075Y-90069745D01*
X164560255Y-89999925D01*
X164474745Y-89950556D01*
X164379370Y-89925000D01*
X164101448Y-89925000D01*
X164536312Y-89490135D01*
X167657500Y-89490135D01*
X167657500Y-91109870D01*
X167657501Y-91109876D01*
X167663908Y-91169483D01*
X167714202Y-91304328D01*
X167714206Y-91304335D01*
X167800452Y-91419544D01*
X167800455Y-91419547D01*
X167915664Y-91505793D01*
X167915671Y-91505797D01*
X168050517Y-91556091D01*
X168050516Y-91556091D01*
X168057444Y-91556835D01*
X168110127Y-91562500D01*
X169729872Y-91562499D01*
X169789483Y-91556091D01*
X169924331Y-91505796D01*
X170039546Y-91419546D01*
X170125796Y-91304331D01*
X170176091Y-91169483D01*
X170182500Y-91109873D01*
X170182499Y-91069920D01*
X170202182Y-91002884D01*
X170254985Y-90957128D01*
X170324143Y-90947183D01*
X170387700Y-90976206D01*
X170408073Y-90998796D01*
X170489174Y-91114620D01*
X170489175Y-91114621D01*
X170645378Y-91270824D01*
X170645384Y-91270829D01*
X170826333Y-91397531D01*
X170826335Y-91397532D01*
X170826338Y-91397534D01*
X171026550Y-91490894D01*
X171239932Y-91548070D01*
X171397123Y-91561822D01*
X171459998Y-91567323D01*
X171460000Y-91567323D01*
X171460002Y-91567323D01*
X171515151Y-91562498D01*
X171680068Y-91548070D01*
X171893450Y-91490894D01*
X172093662Y-91397534D01*
X172274620Y-91270826D01*
X172430826Y-91114620D01*
X172557534Y-90933662D01*
X172617618Y-90804811D01*
X172663790Y-90752371D01*
X172730983Y-90733219D01*
X172797865Y-90753435D01*
X172842382Y-90804811D01*
X172902464Y-90933658D01*
X172902468Y-90933666D01*
X173029170Y-91114615D01*
X173029175Y-91114621D01*
X173185378Y-91270824D01*
X173185384Y-91270829D01*
X173366333Y-91397531D01*
X173366335Y-91397532D01*
X173366338Y-91397534D01*
X173566550Y-91490894D01*
X173779932Y-91548070D01*
X173937123Y-91561822D01*
X173999998Y-91567323D01*
X174000000Y-91567323D01*
X174000002Y-91567323D01*
X174055151Y-91562498D01*
X174220068Y-91548070D01*
X174433450Y-91490894D01*
X174633662Y-91397534D01*
X174814620Y-91270826D01*
X174970826Y-91114620D01*
X175097534Y-90933662D01*
X175157618Y-90804811D01*
X175203790Y-90752371D01*
X175270983Y-90733219D01*
X175337865Y-90753435D01*
X175382382Y-90804811D01*
X175442464Y-90933658D01*
X175442468Y-90933666D01*
X175569170Y-91114615D01*
X175569175Y-91114621D01*
X175725378Y-91270824D01*
X175725384Y-91270829D01*
X175906333Y-91397531D01*
X175906335Y-91397532D01*
X175906338Y-91397534D01*
X176106550Y-91490894D01*
X176319932Y-91548070D01*
X176477123Y-91561822D01*
X176539998Y-91567323D01*
X176540000Y-91567323D01*
X176540002Y-91567323D01*
X176595151Y-91562498D01*
X176760068Y-91548070D01*
X176973450Y-91490894D01*
X177173662Y-91397534D01*
X177354620Y-91270826D01*
X177510826Y-91114620D01*
X177637534Y-90933662D01*
X177697618Y-90804811D01*
X177743790Y-90752371D01*
X177810983Y-90733219D01*
X177877865Y-90753435D01*
X177922382Y-90804811D01*
X177982464Y-90933658D01*
X177982468Y-90933666D01*
X178109170Y-91114615D01*
X178109175Y-91114621D01*
X178265378Y-91270824D01*
X178265384Y-91270829D01*
X178446333Y-91397531D01*
X178446335Y-91397532D01*
X178446338Y-91397534D01*
X178646550Y-91490894D01*
X178859932Y-91548070D01*
X179017123Y-91561822D01*
X179079998Y-91567323D01*
X179080000Y-91567323D01*
X179080002Y-91567323D01*
X179135151Y-91562498D01*
X179300068Y-91548070D01*
X179513450Y-91490894D01*
X179713662Y-91397534D01*
X179894620Y-91270826D01*
X180050826Y-91114620D01*
X180177534Y-90933662D01*
X180237894Y-90804218D01*
X180284066Y-90751779D01*
X180351259Y-90732627D01*
X180418141Y-90752843D01*
X180462658Y-90804219D01*
X180522898Y-90933405D01*
X180522901Y-90933411D01*
X180568258Y-90998187D01*
X180568259Y-90998188D01*
X181057577Y-90508869D01*
X181069925Y-90530255D01*
X181139745Y-90600075D01*
X181225255Y-90649444D01*
X181320630Y-90675000D01*
X181598553Y-90675000D01*
X180921810Y-91351740D01*
X180986590Y-91397099D01*
X180986592Y-91397100D01*
X181186715Y-91490419D01*
X181186729Y-91490424D01*
X181400013Y-91547573D01*
X181400023Y-91547575D01*
X181619999Y-91566821D01*
X181620001Y-91566821D01*
X181839976Y-91547575D01*
X181839986Y-91547573D01*
X182053270Y-91490424D01*
X182053284Y-91490419D01*
X182253407Y-91397100D01*
X182253417Y-91397094D01*
X182318188Y-91351741D01*
X181641448Y-90675000D01*
X181919370Y-90675000D01*
X182014745Y-90649444D01*
X182100255Y-90600075D01*
X182170075Y-90530255D01*
X182182422Y-90508869D01*
X182671741Y-90998188D01*
X182717094Y-90933417D01*
X182717100Y-90933407D01*
X182810419Y-90733284D01*
X182810424Y-90733270D01*
X182867573Y-90519986D01*
X182867575Y-90519976D01*
X182886821Y-90300000D01*
X182886821Y-90299999D01*
X182867575Y-90080023D01*
X182867573Y-90080013D01*
X182810424Y-89866729D01*
X182810420Y-89866720D01*
X182717096Y-89666586D01*
X182671741Y-89601811D01*
X182671740Y-89601810D01*
X182182421Y-90091129D01*
X182170075Y-90069745D01*
X182100255Y-89999925D01*
X182014745Y-89950556D01*
X181919370Y-89925000D01*
X181641448Y-89925000D01*
X182318188Y-89248259D01*
X182318187Y-89248258D01*
X182253411Y-89202901D01*
X182253405Y-89202898D01*
X182053284Y-89109580D01*
X182053270Y-89109575D01*
X181839986Y-89052426D01*
X181839976Y-89052424D01*
X181620001Y-89033179D01*
X181619999Y-89033179D01*
X181400023Y-89052424D01*
X181400013Y-89052426D01*
X181186729Y-89109575D01*
X181186720Y-89109579D01*
X180986590Y-89202901D01*
X180921811Y-89248258D01*
X181598553Y-89925000D01*
X181320630Y-89925000D01*
X181225255Y-89950556D01*
X181139745Y-89999925D01*
X181069925Y-90069745D01*
X181057578Y-90091130D01*
X180568258Y-89601811D01*
X180522901Y-89666590D01*
X180462658Y-89795781D01*
X180416485Y-89848220D01*
X180349292Y-89867372D01*
X180282411Y-89847156D01*
X180237894Y-89795781D01*
X180177534Y-89666340D01*
X180177533Y-89666338D01*
X180142699Y-89616590D01*
X180097341Y-89551811D01*
X180050827Y-89485381D01*
X179995962Y-89430516D01*
X179894620Y-89329174D01*
X179894616Y-89329171D01*
X179894615Y-89329170D01*
X179713666Y-89202468D01*
X179713662Y-89202466D01*
X179666457Y-89180454D01*
X179513450Y-89109106D01*
X179513447Y-89109105D01*
X179513445Y-89109104D01*
X179300070Y-89051930D01*
X179300062Y-89051929D01*
X179080002Y-89032677D01*
X179079998Y-89032677D01*
X178859937Y-89051929D01*
X178859929Y-89051930D01*
X178646554Y-89109104D01*
X178646548Y-89109107D01*
X178446340Y-89202465D01*
X178446338Y-89202466D01*
X178265377Y-89329175D01*
X178109175Y-89485377D01*
X177982466Y-89666338D01*
X177982465Y-89666340D01*
X177922382Y-89795189D01*
X177876209Y-89847628D01*
X177809016Y-89866780D01*
X177742135Y-89846564D01*
X177697618Y-89795189D01*
X177637534Y-89666340D01*
X177637533Y-89666338D01*
X177602699Y-89616590D01*
X177557341Y-89551811D01*
X177510827Y-89485381D01*
X177455962Y-89430516D01*
X177354620Y-89329174D01*
X177354616Y-89329171D01*
X177354615Y-89329170D01*
X177173666Y-89202468D01*
X177173662Y-89202466D01*
X177126457Y-89180454D01*
X176973450Y-89109106D01*
X176973447Y-89109105D01*
X176973445Y-89109104D01*
X176760070Y-89051930D01*
X176760062Y-89051929D01*
X176540002Y-89032677D01*
X176539998Y-89032677D01*
X176319937Y-89051929D01*
X176319929Y-89051930D01*
X176106554Y-89109104D01*
X176106548Y-89109107D01*
X175906340Y-89202465D01*
X175906338Y-89202466D01*
X175725377Y-89329175D01*
X175569175Y-89485377D01*
X175442466Y-89666338D01*
X175442465Y-89666340D01*
X175382382Y-89795189D01*
X175336209Y-89847628D01*
X175269016Y-89866780D01*
X175202135Y-89846564D01*
X175157618Y-89795189D01*
X175097534Y-89666340D01*
X175097533Y-89666338D01*
X175062699Y-89616590D01*
X175017341Y-89551811D01*
X174970827Y-89485381D01*
X174915962Y-89430516D01*
X174814620Y-89329174D01*
X174814616Y-89329171D01*
X174814615Y-89329170D01*
X174633666Y-89202468D01*
X174633662Y-89202466D01*
X174586457Y-89180454D01*
X174433450Y-89109106D01*
X174433447Y-89109105D01*
X174433445Y-89109104D01*
X174220070Y-89051930D01*
X174220062Y-89051929D01*
X174000002Y-89032677D01*
X173999998Y-89032677D01*
X173779937Y-89051929D01*
X173779929Y-89051930D01*
X173566554Y-89109104D01*
X173566548Y-89109107D01*
X173366340Y-89202465D01*
X173366338Y-89202466D01*
X173185377Y-89329175D01*
X173029175Y-89485377D01*
X172902466Y-89666338D01*
X172902465Y-89666340D01*
X172842382Y-89795189D01*
X172796209Y-89847628D01*
X172729016Y-89866780D01*
X172662135Y-89846564D01*
X172617618Y-89795189D01*
X172557534Y-89666340D01*
X172557533Y-89666338D01*
X172522699Y-89616590D01*
X172477341Y-89551811D01*
X172430827Y-89485381D01*
X172375962Y-89430516D01*
X172274620Y-89329174D01*
X172274616Y-89329171D01*
X172274615Y-89329170D01*
X172093666Y-89202468D01*
X172093662Y-89202466D01*
X172046457Y-89180454D01*
X171893450Y-89109106D01*
X171893447Y-89109105D01*
X171893445Y-89109104D01*
X171680070Y-89051930D01*
X171680062Y-89051929D01*
X171460002Y-89032677D01*
X171459998Y-89032677D01*
X171239937Y-89051929D01*
X171239929Y-89051930D01*
X171026554Y-89109104D01*
X171026548Y-89109107D01*
X170826340Y-89202465D01*
X170826338Y-89202466D01*
X170645377Y-89329175D01*
X170489175Y-89485377D01*
X170408074Y-89601203D01*
X170353497Y-89644828D01*
X170283999Y-89652022D01*
X170221644Y-89620499D01*
X170186230Y-89560270D01*
X170182499Y-89530080D01*
X170182499Y-89490129D01*
X170182498Y-89490123D01*
X170182497Y-89490116D01*
X170176091Y-89430517D01*
X170157442Y-89380517D01*
X170125797Y-89295671D01*
X170125793Y-89295664D01*
X170039547Y-89180455D01*
X170039544Y-89180452D01*
X169924335Y-89094206D01*
X169924328Y-89094202D01*
X169789482Y-89043908D01*
X169789483Y-89043908D01*
X169729883Y-89037501D01*
X169729881Y-89037500D01*
X169729873Y-89037500D01*
X169729864Y-89037500D01*
X168110129Y-89037500D01*
X168110123Y-89037501D01*
X168050516Y-89043908D01*
X167915671Y-89094202D01*
X167915664Y-89094206D01*
X167800455Y-89180452D01*
X167800452Y-89180455D01*
X167714206Y-89295664D01*
X167714202Y-89295671D01*
X167663908Y-89430517D01*
X167658010Y-89485380D01*
X167657501Y-89490123D01*
X167657500Y-89490135D01*
X164536312Y-89490135D01*
X164778188Y-89248259D01*
X164778187Y-89248258D01*
X164713411Y-89202901D01*
X164713405Y-89202898D01*
X164513284Y-89109580D01*
X164513270Y-89109575D01*
X164299986Y-89052426D01*
X164299976Y-89052424D01*
X164080001Y-89033179D01*
X164079999Y-89033179D01*
X163860023Y-89052424D01*
X163860013Y-89052426D01*
X163646729Y-89109575D01*
X163646720Y-89109579D01*
X163446590Y-89202901D01*
X163381811Y-89248258D01*
X164058553Y-89925000D01*
X163780630Y-89925000D01*
X163685255Y-89950556D01*
X163599745Y-89999925D01*
X163529925Y-90069745D01*
X163517578Y-90091130D01*
X163028258Y-89601811D01*
X162982901Y-89666590D01*
X162922658Y-89795781D01*
X162876485Y-89848220D01*
X162809292Y-89867372D01*
X162742411Y-89847156D01*
X162697894Y-89795781D01*
X162637534Y-89666340D01*
X162637533Y-89666338D01*
X162602699Y-89616590D01*
X162557341Y-89551811D01*
X162510827Y-89485381D01*
X162455962Y-89430516D01*
X162354620Y-89329174D01*
X162354616Y-89329171D01*
X162354615Y-89329170D01*
X162173666Y-89202468D01*
X162173662Y-89202466D01*
X162126457Y-89180454D01*
X161973450Y-89109106D01*
X161973447Y-89109105D01*
X161973445Y-89109104D01*
X161760070Y-89051930D01*
X161760062Y-89051929D01*
X161540002Y-89032677D01*
X161539998Y-89032677D01*
X161319937Y-89051929D01*
X161319929Y-89051930D01*
X161106554Y-89109104D01*
X161106548Y-89109107D01*
X160906340Y-89202465D01*
X160906338Y-89202466D01*
X160725377Y-89329175D01*
X160569175Y-89485377D01*
X160442466Y-89666338D01*
X160442465Y-89666340D01*
X160382382Y-89795189D01*
X160336209Y-89847628D01*
X160269016Y-89866780D01*
X160202135Y-89846564D01*
X160157618Y-89795189D01*
X160097534Y-89666340D01*
X160097533Y-89666338D01*
X160062699Y-89616590D01*
X160017341Y-89551811D01*
X159970827Y-89485381D01*
X159915962Y-89430516D01*
X159814620Y-89329174D01*
X159814616Y-89329171D01*
X159814615Y-89329170D01*
X159633666Y-89202468D01*
X159633662Y-89202466D01*
X159586457Y-89180454D01*
X159433450Y-89109106D01*
X159433447Y-89109105D01*
X159433445Y-89109104D01*
X159220070Y-89051930D01*
X159220062Y-89051929D01*
X159000002Y-89032677D01*
X158999998Y-89032677D01*
X158779937Y-89051929D01*
X158779929Y-89051930D01*
X158566554Y-89109104D01*
X158566548Y-89109107D01*
X158366340Y-89202465D01*
X158366338Y-89202466D01*
X158185377Y-89329175D01*
X158029175Y-89485377D01*
X157902466Y-89666338D01*
X157902465Y-89666340D01*
X157842382Y-89795189D01*
X157796209Y-89847628D01*
X157729016Y-89866780D01*
X157662135Y-89846564D01*
X157617618Y-89795189D01*
X157557534Y-89666340D01*
X157557533Y-89666338D01*
X157522699Y-89616590D01*
X157477341Y-89551811D01*
X157430827Y-89485381D01*
X157375962Y-89430516D01*
X157274620Y-89329174D01*
X157274616Y-89329171D01*
X157274615Y-89329170D01*
X157093666Y-89202468D01*
X157093662Y-89202466D01*
X157046457Y-89180454D01*
X156893450Y-89109106D01*
X156893447Y-89109105D01*
X156893445Y-89109104D01*
X156680070Y-89051930D01*
X156680062Y-89051929D01*
X156460002Y-89032677D01*
X156459998Y-89032677D01*
X156239937Y-89051929D01*
X156239929Y-89051930D01*
X156026554Y-89109104D01*
X156026548Y-89109107D01*
X155826340Y-89202465D01*
X155826338Y-89202466D01*
X155645377Y-89329175D01*
X155489175Y-89485377D01*
X155362466Y-89666338D01*
X155362465Y-89666340D01*
X155302382Y-89795189D01*
X155256209Y-89847628D01*
X155189016Y-89866780D01*
X155122135Y-89846564D01*
X155077618Y-89795189D01*
X155017534Y-89666340D01*
X155017533Y-89666338D01*
X154982699Y-89616590D01*
X154937341Y-89551811D01*
X154890827Y-89485381D01*
X154835962Y-89430516D01*
X154734620Y-89329174D01*
X154734616Y-89329171D01*
X154734615Y-89329170D01*
X154553666Y-89202468D01*
X154553662Y-89202466D01*
X154506457Y-89180454D01*
X154353450Y-89109106D01*
X154353447Y-89109105D01*
X154353445Y-89109104D01*
X154140070Y-89051930D01*
X154140062Y-89051929D01*
X153920002Y-89032677D01*
X153919998Y-89032677D01*
X153699937Y-89051929D01*
X153699929Y-89051930D01*
X153486554Y-89109104D01*
X153486548Y-89109107D01*
X153286340Y-89202465D01*
X153286338Y-89202466D01*
X153105377Y-89329175D01*
X152949175Y-89485377D01*
X152868074Y-89601203D01*
X152813497Y-89644828D01*
X152743999Y-89652022D01*
X152681644Y-89620499D01*
X152646230Y-89560270D01*
X152642499Y-89530080D01*
X152642499Y-89490129D01*
X152642498Y-89490123D01*
X152642497Y-89490116D01*
X152636091Y-89430517D01*
X152617442Y-89380517D01*
X152585797Y-89295671D01*
X152585793Y-89295664D01*
X152499547Y-89180455D01*
X152499544Y-89180452D01*
X152384335Y-89094206D01*
X152384328Y-89094202D01*
X152249482Y-89043908D01*
X152249483Y-89043908D01*
X152189883Y-89037501D01*
X152189881Y-89037500D01*
X152189873Y-89037500D01*
X152189864Y-89037500D01*
X150570129Y-89037500D01*
X150570123Y-89037501D01*
X150510516Y-89043908D01*
X150375671Y-89094202D01*
X150375664Y-89094206D01*
X150260455Y-89180452D01*
X150260452Y-89180455D01*
X150174206Y-89295664D01*
X150174202Y-89295671D01*
X150123908Y-89430517D01*
X150118010Y-89485380D01*
X150117501Y-89490123D01*
X150117500Y-89490135D01*
X146846312Y-89490135D01*
X147138188Y-89198259D01*
X147138187Y-89198258D01*
X147073411Y-89152901D01*
X147073405Y-89152898D01*
X146873284Y-89059580D01*
X146873270Y-89059575D01*
X146659986Y-89002426D01*
X146659976Y-89002424D01*
X146440001Y-88983179D01*
X146439999Y-88983179D01*
X146220023Y-89002424D01*
X146220013Y-89002426D01*
X146006729Y-89059575D01*
X146006720Y-89059579D01*
X145806590Y-89152901D01*
X145741811Y-89198258D01*
X146418553Y-89875000D01*
X146140630Y-89875000D01*
X146045255Y-89900556D01*
X145959745Y-89949925D01*
X145889925Y-90019745D01*
X145877577Y-90041130D01*
X145388258Y-89551811D01*
X145342901Y-89616590D01*
X145282658Y-89745781D01*
X145236485Y-89798220D01*
X145169292Y-89817372D01*
X145102411Y-89797156D01*
X145057894Y-89745781D01*
X145020966Y-89666590D01*
X144997534Y-89616339D01*
X144909166Y-89490135D01*
X144870827Y-89435381D01*
X144815962Y-89380516D01*
X144714620Y-89279174D01*
X144714616Y-89279171D01*
X144714615Y-89279170D01*
X144533666Y-89152468D01*
X144533662Y-89152466D01*
X144486457Y-89130454D01*
X144333450Y-89059106D01*
X144333447Y-89059105D01*
X144333445Y-89059104D01*
X144120070Y-89001930D01*
X144120062Y-89001929D01*
X143900002Y-88982677D01*
X143899998Y-88982677D01*
X143679937Y-89001929D01*
X143679929Y-89001930D01*
X143466554Y-89059104D01*
X143466548Y-89059107D01*
X143266340Y-89152465D01*
X143266338Y-89152466D01*
X143085377Y-89279175D01*
X142929175Y-89435377D01*
X142802466Y-89616338D01*
X142802465Y-89616340D01*
X142742382Y-89745189D01*
X142696209Y-89797628D01*
X142629016Y-89816780D01*
X142562135Y-89796564D01*
X142517618Y-89745189D01*
X142480966Y-89666590D01*
X142457534Y-89616339D01*
X142369166Y-89490135D01*
X142330827Y-89435381D01*
X142275962Y-89380516D01*
X142174620Y-89279174D01*
X142174616Y-89279171D01*
X142174615Y-89279170D01*
X141993666Y-89152468D01*
X141993662Y-89152466D01*
X141946457Y-89130454D01*
X141793450Y-89059106D01*
X141793447Y-89059105D01*
X141793445Y-89059104D01*
X141580070Y-89001930D01*
X141580062Y-89001929D01*
X141360002Y-88982677D01*
X141359998Y-88982677D01*
X141139937Y-89001929D01*
X141139929Y-89001930D01*
X140926554Y-89059104D01*
X140926548Y-89059107D01*
X140726340Y-89152465D01*
X140726338Y-89152466D01*
X140545377Y-89279175D01*
X140389175Y-89435377D01*
X140262466Y-89616338D01*
X140262465Y-89616340D01*
X140202382Y-89745189D01*
X140156209Y-89797628D01*
X140089016Y-89816780D01*
X140022135Y-89796564D01*
X139977618Y-89745189D01*
X139940966Y-89666590D01*
X139917534Y-89616339D01*
X139829166Y-89490135D01*
X139790827Y-89435381D01*
X139735962Y-89380516D01*
X139634620Y-89279174D01*
X139634616Y-89279171D01*
X139634615Y-89279170D01*
X139453666Y-89152468D01*
X139453662Y-89152466D01*
X139406457Y-89130454D01*
X139253450Y-89059106D01*
X139253447Y-89059105D01*
X139253445Y-89059104D01*
X139040070Y-89001930D01*
X139040062Y-89001929D01*
X138820002Y-88982677D01*
X138819998Y-88982677D01*
X138599937Y-89001929D01*
X138599929Y-89001930D01*
X138386554Y-89059104D01*
X138386548Y-89059107D01*
X138186340Y-89152465D01*
X138186338Y-89152466D01*
X138005377Y-89279175D01*
X137849175Y-89435377D01*
X137722466Y-89616338D01*
X137722465Y-89616340D01*
X137662382Y-89745189D01*
X137616209Y-89797628D01*
X137549016Y-89816780D01*
X137482135Y-89796564D01*
X137437618Y-89745189D01*
X137400966Y-89666590D01*
X137377534Y-89616339D01*
X137289166Y-89490135D01*
X137250827Y-89435381D01*
X137195962Y-89380516D01*
X137094620Y-89279174D01*
X137094616Y-89279171D01*
X137094615Y-89279170D01*
X136913666Y-89152468D01*
X136913662Y-89152466D01*
X136866457Y-89130454D01*
X136713450Y-89059106D01*
X136713447Y-89059105D01*
X136713445Y-89059104D01*
X136500070Y-89001930D01*
X136500062Y-89001929D01*
X136280002Y-88982677D01*
X136279998Y-88982677D01*
X136059937Y-89001929D01*
X136059929Y-89001930D01*
X135846554Y-89059104D01*
X135846548Y-89059107D01*
X135646340Y-89152465D01*
X135646338Y-89152466D01*
X135465377Y-89279175D01*
X135309175Y-89435377D01*
X135228074Y-89551203D01*
X135173497Y-89594828D01*
X135103999Y-89602022D01*
X135041644Y-89570499D01*
X135006230Y-89510270D01*
X135002499Y-89480080D01*
X135002499Y-89440129D01*
X135002498Y-89440123D01*
X135002497Y-89440116D01*
X134996091Y-89380517D01*
X134976941Y-89329174D01*
X134945797Y-89245671D01*
X134945793Y-89245664D01*
X134859547Y-89130455D01*
X134859544Y-89130452D01*
X134744335Y-89044206D01*
X134744328Y-89044202D01*
X134609482Y-88993908D01*
X134609483Y-88993908D01*
X134549883Y-88987501D01*
X134549881Y-88987500D01*
X134549873Y-88987500D01*
X134549864Y-88987500D01*
X132930129Y-88987500D01*
X132930123Y-88987501D01*
X132870516Y-88993908D01*
X132735671Y-89044202D01*
X132735664Y-89044206D01*
X132620455Y-89130452D01*
X132620452Y-89130455D01*
X132534206Y-89245664D01*
X132534202Y-89245671D01*
X132483908Y-89380517D01*
X132478010Y-89435380D01*
X132477501Y-89440123D01*
X132477500Y-89440135D01*
X132000500Y-89440135D01*
X132000500Y-87499996D01*
X132944435Y-87499996D01*
X132944435Y-87500003D01*
X132964630Y-87679249D01*
X132964631Y-87679254D01*
X133024211Y-87849523D01*
X133106079Y-87979814D01*
X133120184Y-88002262D01*
X133247738Y-88129816D01*
X133400478Y-88225789D01*
X133570745Y-88285368D01*
X133570750Y-88285369D01*
X133749996Y-88305565D01*
X133750000Y-88305565D01*
X133750004Y-88305565D01*
X133929249Y-88285369D01*
X133929252Y-88285368D01*
X133929255Y-88285368D01*
X134099522Y-88225789D01*
X134252262Y-88129816D01*
X134252267Y-88129810D01*
X134255097Y-88127555D01*
X134257275Y-88126665D01*
X134258158Y-88126111D01*
X134258255Y-88126265D01*
X134319783Y-88101145D01*
X134332412Y-88100500D01*
X150667588Y-88100500D01*
X150734627Y-88120185D01*
X150744903Y-88127555D01*
X150747736Y-88129814D01*
X150747738Y-88129816D01*
X150900478Y-88225789D01*
X151070745Y-88285368D01*
X151070750Y-88285369D01*
X151249996Y-88305565D01*
X151250000Y-88305565D01*
X151250004Y-88305565D01*
X151429249Y-88285369D01*
X151429252Y-88285368D01*
X151429255Y-88285368D01*
X151599522Y-88225789D01*
X151752262Y-88129816D01*
X151879816Y-88002262D01*
X151879818Y-88002257D01*
X151883865Y-87997185D01*
X151941054Y-87957046D01*
X151980810Y-87950500D01*
X168337588Y-87950500D01*
X168404627Y-87970185D01*
X168414903Y-87977555D01*
X168417736Y-87979814D01*
X168417738Y-87979816D01*
X168570478Y-88075789D01*
X168724878Y-88129816D01*
X168740745Y-88135368D01*
X168740750Y-88135369D01*
X168919996Y-88155565D01*
X168920000Y-88155565D01*
X168920004Y-88155565D01*
X169099249Y-88135369D01*
X169099252Y-88135368D01*
X169099255Y-88135368D01*
X169269522Y-88075789D01*
X169422262Y-87979816D01*
X169549816Y-87852262D01*
X169645789Y-87699522D01*
X169705368Y-87529255D01*
X169708665Y-87500000D01*
X169713102Y-87460617D01*
X169740168Y-87396203D01*
X169797763Y-87356648D01*
X169836322Y-87350500D01*
X178417588Y-87350500D01*
X178484627Y-87370185D01*
X178494903Y-87377555D01*
X178497736Y-87379814D01*
X178497738Y-87379816D01*
X178650478Y-87475789D01*
X178719678Y-87500003D01*
X178820745Y-87535368D01*
X178820750Y-87535369D01*
X178999996Y-87555565D01*
X179000000Y-87555565D01*
X179000004Y-87555565D01*
X179179249Y-87535369D01*
X179179252Y-87535368D01*
X179179255Y-87535368D01*
X179349522Y-87475789D01*
X179502262Y-87379816D01*
X179629816Y-87252262D01*
X179725789Y-87099522D01*
X179785368Y-86929255D01*
X179790713Y-86881816D01*
X179805565Y-86750003D01*
X179805565Y-86749996D01*
X179785369Y-86570750D01*
X179785368Y-86570745D01*
X179725789Y-86400478D01*
X179629816Y-86247738D01*
X179502262Y-86120184D01*
X179433553Y-86077011D01*
X179349523Y-86024211D01*
X179179254Y-85964631D01*
X179179249Y-85964630D01*
X179000004Y-85944435D01*
X178999996Y-85944435D01*
X178820750Y-85964630D01*
X178820745Y-85964631D01*
X178650476Y-86024211D01*
X178497736Y-86120185D01*
X178494903Y-86122445D01*
X178492724Y-86123334D01*
X178491842Y-86123889D01*
X178491744Y-86123734D01*
X178430217Y-86148855D01*
X178417588Y-86149500D01*
X177427476Y-86149500D01*
X177360437Y-86129815D01*
X177314682Y-86077011D01*
X177304256Y-86011614D01*
X177305565Y-85999998D01*
X177305565Y-85999996D01*
X177285369Y-85820750D01*
X177285368Y-85820745D01*
X177225788Y-85650476D01*
X177129815Y-85497737D01*
X177002262Y-85370184D01*
X176849523Y-85274211D01*
X176679254Y-85214631D01*
X176679249Y-85214630D01*
X176500004Y-85194435D01*
X176499996Y-85194435D01*
X176320750Y-85214630D01*
X176320745Y-85214631D01*
X176150476Y-85274211D01*
X175997736Y-85370185D01*
X175994903Y-85372445D01*
X175992724Y-85373334D01*
X175991842Y-85373889D01*
X175991744Y-85373734D01*
X175930217Y-85398855D01*
X175917588Y-85399500D01*
X174927476Y-85399500D01*
X174860437Y-85379815D01*
X174814682Y-85327011D01*
X174804256Y-85261614D01*
X174805565Y-85249998D01*
X174805565Y-85249996D01*
X174785369Y-85070750D01*
X174785368Y-85070745D01*
X174725788Y-84900476D01*
X174629815Y-84747737D01*
X174502262Y-84620184D01*
X174349523Y-84524211D01*
X174179254Y-84464631D01*
X174179249Y-84464630D01*
X174000004Y-84444435D01*
X173999996Y-84444435D01*
X173820750Y-84464630D01*
X173820745Y-84464631D01*
X173650476Y-84524211D01*
X173497736Y-84620185D01*
X173494903Y-84622445D01*
X173492724Y-84623334D01*
X173491842Y-84623889D01*
X173491744Y-84623734D01*
X173430217Y-84648855D01*
X173417588Y-84649500D01*
X172427476Y-84649500D01*
X172360437Y-84629815D01*
X172314682Y-84577011D01*
X172304256Y-84511614D01*
X172305565Y-84500003D01*
X172305565Y-84500000D01*
X172299304Y-84444435D01*
X172285369Y-84320750D01*
X172285368Y-84320745D01*
X172225788Y-84150476D01*
X172129815Y-83997737D01*
X172002262Y-83870184D01*
X171849523Y-83774211D01*
X171679254Y-83714631D01*
X171679249Y-83714630D01*
X171500004Y-83694435D01*
X171499996Y-83694435D01*
X171320750Y-83714630D01*
X171320745Y-83714631D01*
X171150476Y-83774211D01*
X170997736Y-83870185D01*
X170994903Y-83872445D01*
X170992724Y-83873334D01*
X170991842Y-83873889D01*
X170991744Y-83873734D01*
X170930217Y-83898855D01*
X170917588Y-83899500D01*
X169253476Y-83899500D01*
X169186437Y-83879815D01*
X169140682Y-83827011D01*
X169130738Y-83757853D01*
X169159763Y-83694297D01*
X169187504Y-83670506D01*
X169203484Y-83660465D01*
X169252262Y-83629816D01*
X169379816Y-83502262D01*
X169475789Y-83349522D01*
X169535368Y-83179255D01*
X169535369Y-83179250D01*
X169548736Y-83060616D01*
X169575803Y-82996202D01*
X169633397Y-82956647D01*
X169671956Y-82950500D01*
X173667588Y-82950500D01*
X173734627Y-82970185D01*
X173744903Y-82977555D01*
X173747736Y-82979814D01*
X173747738Y-82979816D01*
X173900478Y-83075789D01*
X174070745Y-83135368D01*
X174070750Y-83135369D01*
X174249996Y-83155565D01*
X174250000Y-83155565D01*
X174250004Y-83155565D01*
X174429249Y-83135369D01*
X174429252Y-83135368D01*
X174429255Y-83135368D01*
X174599522Y-83075789D01*
X174752262Y-82979816D01*
X174879816Y-82852262D01*
X174975789Y-82699522D01*
X175035368Y-82529255D01*
X175041393Y-82475789D01*
X175043102Y-82460617D01*
X175070168Y-82396203D01*
X175127763Y-82356648D01*
X175166322Y-82350500D01*
X177917588Y-82350500D01*
X177984627Y-82370185D01*
X177994903Y-82377555D01*
X177997736Y-82379814D01*
X177997738Y-82379816D01*
X178150478Y-82475789D01*
X178303258Y-82529249D01*
X178320745Y-82535368D01*
X178320750Y-82535369D01*
X178499996Y-82555565D01*
X178500000Y-82555565D01*
X178500004Y-82555565D01*
X178679249Y-82535369D01*
X178679252Y-82535368D01*
X178679255Y-82535368D01*
X178849522Y-82475789D01*
X179002262Y-82379816D01*
X179129816Y-82252262D01*
X179225789Y-82099522D01*
X179285368Y-81929255D01*
X179285369Y-81929249D01*
X179305565Y-81750003D01*
X179305565Y-81750001D01*
X179304816Y-81743352D01*
X179304256Y-81738384D01*
X179316309Y-81669564D01*
X179363657Y-81618184D01*
X179427476Y-81600500D01*
X179667588Y-81600500D01*
X179734627Y-81620185D01*
X179744903Y-81627555D01*
X179747736Y-81629814D01*
X179747738Y-81629816D01*
X179810997Y-81669564D01*
X179883875Y-81715357D01*
X179900478Y-81725789D01*
X179969672Y-81750001D01*
X180070745Y-81785368D01*
X180070750Y-81785369D01*
X180249996Y-81805565D01*
X180250000Y-81805565D01*
X180250004Y-81805565D01*
X180429249Y-81785369D01*
X180429252Y-81785368D01*
X180429255Y-81785368D01*
X180599522Y-81725789D01*
X180752262Y-81629816D01*
X180879816Y-81502262D01*
X180975789Y-81349522D01*
X181035368Y-81179255D01*
X181035369Y-81179249D01*
X181055565Y-81000003D01*
X181055565Y-80999996D01*
X181035369Y-80820750D01*
X181035368Y-80820745D01*
X180975788Y-80650476D01*
X180879815Y-80497737D01*
X180752262Y-80370184D01*
X180599523Y-80274211D01*
X180429254Y-80214631D01*
X180429249Y-80214630D01*
X180250004Y-80194435D01*
X180249996Y-80194435D01*
X180070750Y-80214630D01*
X180070745Y-80214631D01*
X179900476Y-80274211D01*
X179747736Y-80370185D01*
X179744903Y-80372445D01*
X179742724Y-80373334D01*
X179741842Y-80373889D01*
X179741744Y-80373734D01*
X179680217Y-80398855D01*
X179667588Y-80399500D01*
X163582412Y-80399500D01*
X163515373Y-80379815D01*
X163505097Y-80372445D01*
X163502263Y-80370185D01*
X163502262Y-80370184D01*
X163445496Y-80334515D01*
X163349523Y-80274211D01*
X163179254Y-80214631D01*
X163179249Y-80214630D01*
X163000004Y-80194435D01*
X162999996Y-80194435D01*
X162820750Y-80214630D01*
X162820745Y-80214631D01*
X162650476Y-80274211D01*
X162497736Y-80370185D01*
X162494903Y-80372445D01*
X162492724Y-80373334D01*
X162491842Y-80373889D01*
X162491744Y-80373734D01*
X162430217Y-80398855D01*
X162417588Y-80399500D01*
X145832412Y-80399500D01*
X145765373Y-80379815D01*
X145755097Y-80372445D01*
X145752263Y-80370185D01*
X145752262Y-80370184D01*
X145695496Y-80334515D01*
X145599523Y-80274211D01*
X145429254Y-80214631D01*
X145429249Y-80214630D01*
X145250004Y-80194435D01*
X145249996Y-80194435D01*
X145070750Y-80214630D01*
X145070745Y-80214631D01*
X144900476Y-80274211D01*
X144747737Y-80370184D01*
X144620184Y-80497737D01*
X144524211Y-80650476D01*
X144464631Y-80820745D01*
X144464630Y-80820749D01*
X144451264Y-80939384D01*
X144424197Y-81003798D01*
X144366603Y-81043353D01*
X144328044Y-81049500D01*
X143175494Y-81049500D01*
X143109523Y-81030494D01*
X143099525Y-81024212D01*
X142929254Y-80964631D01*
X142929249Y-80964630D01*
X142750004Y-80944435D01*
X142749996Y-80944435D01*
X142570750Y-80964630D01*
X142570745Y-80964631D01*
X142400476Y-81024211D01*
X142247737Y-81120184D01*
X142120184Y-81247737D01*
X142024210Y-81400478D01*
X141964630Y-81570750D01*
X141956898Y-81639383D01*
X141929832Y-81703797D01*
X141872237Y-81743352D01*
X141833678Y-81749500D01*
X141650097Y-81749500D01*
X141583058Y-81729815D01*
X141562416Y-81713181D01*
X140830700Y-80981465D01*
X140797215Y-80920142D01*
X140795163Y-80907686D01*
X140785368Y-80820745D01*
X140725789Y-80650478D01*
X140629816Y-80497738D01*
X140502262Y-80370184D01*
X140349523Y-80274211D01*
X140179254Y-80214631D01*
X140179249Y-80214630D01*
X140000004Y-80194435D01*
X139999996Y-80194435D01*
X139820750Y-80214630D01*
X139820745Y-80214631D01*
X139650476Y-80274211D01*
X139497737Y-80370184D01*
X139370184Y-80497737D01*
X139274211Y-80650476D01*
X139214631Y-80820745D01*
X139214630Y-80820750D01*
X139194435Y-80999996D01*
X139194435Y-81000003D01*
X139198591Y-81036891D01*
X139186536Y-81105713D01*
X139139187Y-81157092D01*
X139071577Y-81174716D01*
X139005171Y-81152989D01*
X138987690Y-81138455D01*
X138487590Y-80638355D01*
X138487588Y-80638352D01*
X138368717Y-80519481D01*
X138368709Y-80519475D01*
X138266936Y-80460717D01*
X138266934Y-80460716D01*
X138231790Y-80440425D01*
X138231789Y-80440424D01*
X138079054Y-80399498D01*
X138070997Y-80398438D01*
X138071287Y-80396232D01*
X138015372Y-80379814D01*
X138005097Y-80372445D01*
X138002262Y-80370184D01*
X137849523Y-80274211D01*
X137679254Y-80214631D01*
X137679249Y-80214630D01*
X137500004Y-80194435D01*
X137499996Y-80194435D01*
X137320750Y-80214630D01*
X137320745Y-80214631D01*
X137150476Y-80274211D01*
X136997737Y-80370184D01*
X136870184Y-80497737D01*
X136774211Y-80650476D01*
X136714631Y-80820745D01*
X136714630Y-80820750D01*
X136694435Y-80999996D01*
X136694435Y-81000003D01*
X136714630Y-81179249D01*
X136714631Y-81179254D01*
X136774211Y-81349523D01*
X136870184Y-81502262D01*
X136997738Y-81629816D01*
X137012964Y-81639383D01*
X137133875Y-81715357D01*
X137150478Y-81725789D01*
X137219672Y-81750001D01*
X137320745Y-81785368D01*
X137320750Y-81785369D01*
X137499996Y-81805565D01*
X137500000Y-81805565D01*
X137500004Y-81805565D01*
X137679249Y-81785369D01*
X137679252Y-81785368D01*
X137679255Y-81785368D01*
X137679256Y-81785367D01*
X137679259Y-81785367D01*
X137712100Y-81773875D01*
X137796006Y-81744514D01*
X137865782Y-81740952D01*
X137924640Y-81773875D01*
X139515139Y-83364374D01*
X139515149Y-83364385D01*
X139519479Y-83368715D01*
X139519480Y-83368716D01*
X139588584Y-83437820D01*
X139622068Y-83499141D01*
X139617084Y-83568833D01*
X139575213Y-83624767D01*
X139509749Y-83649184D01*
X139500902Y-83649500D01*
X136420940Y-83649500D01*
X136380019Y-83660464D01*
X136380019Y-83660465D01*
X136268216Y-83690423D01*
X136264574Y-83691399D01*
X136246364Y-83694844D01*
X136070749Y-83714630D01*
X136070745Y-83714631D01*
X135900476Y-83774211D01*
X135747737Y-83870184D01*
X135620184Y-83997737D01*
X135524211Y-84150476D01*
X135464631Y-84320745D01*
X135464630Y-84320750D01*
X135444435Y-84499996D01*
X135444435Y-84500003D01*
X135464630Y-84679249D01*
X135464631Y-84679254D01*
X135524211Y-84849523D01*
X135561287Y-84908528D01*
X135620184Y-85002262D01*
X135747738Y-85129816D01*
X135838080Y-85186582D01*
X135882721Y-85214632D01*
X135900478Y-85225789D01*
X136002860Y-85261614D01*
X136070745Y-85285368D01*
X136070750Y-85285369D01*
X136249996Y-85305565D01*
X136250000Y-85305565D01*
X136250004Y-85305565D01*
X136429249Y-85285369D01*
X136429252Y-85285368D01*
X136429255Y-85285368D01*
X136599522Y-85225789D01*
X136752262Y-85129816D01*
X136879816Y-85002262D01*
X136938713Y-84908528D01*
X136991048Y-84862237D01*
X137043707Y-84850500D01*
X146866937Y-84850500D01*
X146933976Y-84870185D01*
X146979731Y-84922989D01*
X146989675Y-84992147D01*
X146983978Y-85015455D01*
X146964633Y-85070737D01*
X146964630Y-85070750D01*
X146944435Y-85249996D01*
X146944435Y-85249998D01*
X146945744Y-85261614D01*
X146933691Y-85330436D01*
X146886343Y-85381816D01*
X146822524Y-85399500D01*
X141420940Y-85399500D01*
X141380019Y-85410464D01*
X141380019Y-85410465D01*
X141268216Y-85440423D01*
X141264574Y-85441399D01*
X141246364Y-85444844D01*
X141070749Y-85464630D01*
X141070745Y-85464631D01*
X140900476Y-85524211D01*
X140747737Y-85620184D01*
X140620184Y-85747737D01*
X140524211Y-85900476D01*
X140464631Y-86070745D01*
X140464630Y-86070750D01*
X140444435Y-86249996D01*
X140444435Y-86250003D01*
X140464630Y-86429249D01*
X140464631Y-86429254D01*
X140524211Y-86599524D01*
X140593332Y-86709527D01*
X140612333Y-86776764D01*
X140591966Y-86843599D01*
X140538698Y-86888814D01*
X140488339Y-86899500D01*
X134332412Y-86899500D01*
X134265373Y-86879815D01*
X134255097Y-86872445D01*
X134252263Y-86870185D01*
X134252262Y-86870184D01*
X134195496Y-86834515D01*
X134099523Y-86774211D01*
X133929254Y-86714631D01*
X133929249Y-86714630D01*
X133750004Y-86694435D01*
X133749996Y-86694435D01*
X133570750Y-86714630D01*
X133570745Y-86714631D01*
X133400476Y-86774211D01*
X133247737Y-86870184D01*
X133120184Y-86997737D01*
X133024211Y-87150476D01*
X132964631Y-87320745D01*
X132964630Y-87320750D01*
X132944435Y-87499996D01*
X132000500Y-87499996D01*
X132000500Y-74949997D01*
X132472677Y-74949997D01*
X132472677Y-74950002D01*
X132491929Y-75170062D01*
X132491930Y-75170070D01*
X132549104Y-75383445D01*
X132549105Y-75383447D01*
X132549106Y-75383450D01*
X132642464Y-75583658D01*
X132642466Y-75583662D01*
X132642468Y-75583666D01*
X132769170Y-75764615D01*
X132769175Y-75764621D01*
X132925378Y-75920824D01*
X132925384Y-75920829D01*
X133106333Y-76047531D01*
X133106335Y-76047532D01*
X133106338Y-76047534D01*
X133306550Y-76140894D01*
X133519932Y-76198070D01*
X133677123Y-76211822D01*
X133739998Y-76217323D01*
X133740000Y-76217323D01*
X133740002Y-76217323D01*
X133795017Y-76212509D01*
X133960068Y-76198070D01*
X134173450Y-76140894D01*
X134373662Y-76047534D01*
X134554620Y-75920826D01*
X134710826Y-75764620D01*
X134837534Y-75583662D01*
X134897618Y-75454811D01*
X134943790Y-75402371D01*
X135010983Y-75383219D01*
X135077865Y-75403435D01*
X135122382Y-75454811D01*
X135182464Y-75583658D01*
X135182468Y-75583666D01*
X135309170Y-75764615D01*
X135309175Y-75764621D01*
X135465378Y-75920824D01*
X135465384Y-75920829D01*
X135646333Y-76047531D01*
X135646335Y-76047532D01*
X135646338Y-76047534D01*
X135846550Y-76140894D01*
X136059932Y-76198070D01*
X136217123Y-76211822D01*
X136279998Y-76217323D01*
X136280000Y-76217323D01*
X136280002Y-76217323D01*
X136335017Y-76212509D01*
X136500068Y-76198070D01*
X136713450Y-76140894D01*
X136913662Y-76047534D01*
X137094620Y-75920826D01*
X137250826Y-75764620D01*
X137377534Y-75583662D01*
X137437618Y-75454811D01*
X137483790Y-75402371D01*
X137550983Y-75383219D01*
X137617865Y-75403435D01*
X137662382Y-75454811D01*
X137722464Y-75583658D01*
X137722468Y-75583666D01*
X137849170Y-75764615D01*
X137849175Y-75764621D01*
X138005378Y-75920824D01*
X138005384Y-75920829D01*
X138186333Y-76047531D01*
X138186335Y-76047532D01*
X138186338Y-76047534D01*
X138386550Y-76140894D01*
X138599932Y-76198070D01*
X138757123Y-76211822D01*
X138819998Y-76217323D01*
X138820000Y-76217323D01*
X138820002Y-76217323D01*
X138875017Y-76212509D01*
X139040068Y-76198070D01*
X139253450Y-76140894D01*
X139453662Y-76047534D01*
X139634620Y-75920826D01*
X139790826Y-75764620D01*
X139917534Y-75583662D01*
X139977618Y-75454811D01*
X140023790Y-75402371D01*
X140090983Y-75383219D01*
X140157865Y-75403435D01*
X140202382Y-75454811D01*
X140262464Y-75583658D01*
X140262468Y-75583666D01*
X140389170Y-75764615D01*
X140389175Y-75764621D01*
X140545378Y-75920824D01*
X140545384Y-75920829D01*
X140726333Y-76047531D01*
X140726335Y-76047532D01*
X140726338Y-76047534D01*
X140926550Y-76140894D01*
X141139932Y-76198070D01*
X141297123Y-76211822D01*
X141359998Y-76217323D01*
X141360000Y-76217323D01*
X141360002Y-76217323D01*
X141415017Y-76212509D01*
X141580068Y-76198070D01*
X141793450Y-76140894D01*
X141993662Y-76047534D01*
X142174620Y-75920826D01*
X142330826Y-75764620D01*
X142457534Y-75583662D01*
X142517618Y-75454811D01*
X142563790Y-75402371D01*
X142630983Y-75383219D01*
X142697865Y-75403435D01*
X142742382Y-75454811D01*
X142802464Y-75583658D01*
X142802468Y-75583666D01*
X142929170Y-75764615D01*
X142929175Y-75764621D01*
X143085378Y-75920824D01*
X143085384Y-75920829D01*
X143266333Y-76047531D01*
X143266335Y-76047532D01*
X143266338Y-76047534D01*
X143466550Y-76140894D01*
X143679932Y-76198070D01*
X143837123Y-76211822D01*
X143899998Y-76217323D01*
X143900000Y-76217323D01*
X143900002Y-76217323D01*
X143955017Y-76212509D01*
X144120068Y-76198070D01*
X144333450Y-76140894D01*
X144533662Y-76047534D01*
X144714620Y-75920826D01*
X144870826Y-75764620D01*
X144997534Y-75583662D01*
X145057618Y-75454811D01*
X145103790Y-75402371D01*
X145170983Y-75383219D01*
X145237865Y-75403435D01*
X145282382Y-75454811D01*
X145342464Y-75583658D01*
X145342468Y-75583666D01*
X145469170Y-75764615D01*
X145469175Y-75764621D01*
X145625378Y-75920824D01*
X145625384Y-75920829D01*
X145806333Y-76047531D01*
X145806335Y-76047532D01*
X145806338Y-76047534D01*
X146006550Y-76140894D01*
X146219932Y-76198070D01*
X146377123Y-76211822D01*
X146439998Y-76217323D01*
X146440000Y-76217323D01*
X146440002Y-76217323D01*
X146495017Y-76212509D01*
X146660068Y-76198070D01*
X146873450Y-76140894D01*
X147073662Y-76047534D01*
X147254620Y-75920826D01*
X147410826Y-75764620D01*
X147537534Y-75583662D01*
X147630894Y-75383450D01*
X147688070Y-75170068D01*
X147702509Y-75005017D01*
X147702948Y-74999997D01*
X150112677Y-74999997D01*
X150112677Y-75000002D01*
X150131929Y-75220062D01*
X150131930Y-75220070D01*
X150189104Y-75433445D01*
X150189105Y-75433447D01*
X150189106Y-75433450D01*
X150199067Y-75454811D01*
X150282466Y-75633662D01*
X150282468Y-75633666D01*
X150409170Y-75814615D01*
X150409175Y-75814621D01*
X150565378Y-75970824D01*
X150565384Y-75970829D01*
X150746333Y-76097531D01*
X150746335Y-76097532D01*
X150746338Y-76097534D01*
X150946550Y-76190894D01*
X151159932Y-76248070D01*
X151317123Y-76261822D01*
X151379998Y-76267323D01*
X151380000Y-76267323D01*
X151380002Y-76267323D01*
X151435017Y-76262509D01*
X151600068Y-76248070D01*
X151813450Y-76190894D01*
X152013662Y-76097534D01*
X152194620Y-75970826D01*
X152350826Y-75814620D01*
X152477534Y-75633662D01*
X152537618Y-75504811D01*
X152583790Y-75452371D01*
X152650983Y-75433219D01*
X152717865Y-75453435D01*
X152762382Y-75504811D01*
X152822464Y-75633658D01*
X152822468Y-75633666D01*
X152949170Y-75814615D01*
X152949175Y-75814621D01*
X153105378Y-75970824D01*
X153105384Y-75970829D01*
X153286333Y-76097531D01*
X153286335Y-76097532D01*
X153286338Y-76097534D01*
X153486550Y-76190894D01*
X153699932Y-76248070D01*
X153857123Y-76261822D01*
X153919998Y-76267323D01*
X153920000Y-76267323D01*
X153920002Y-76267323D01*
X153975017Y-76262509D01*
X154140068Y-76248070D01*
X154353450Y-76190894D01*
X154553662Y-76097534D01*
X154734620Y-75970826D01*
X154890826Y-75814620D01*
X155017534Y-75633662D01*
X155077618Y-75504811D01*
X155123790Y-75452371D01*
X155190983Y-75433219D01*
X155257865Y-75453435D01*
X155302382Y-75504811D01*
X155362464Y-75633658D01*
X155362468Y-75633666D01*
X155489170Y-75814615D01*
X155489175Y-75814621D01*
X155645378Y-75970824D01*
X155645384Y-75970829D01*
X155826333Y-76097531D01*
X155826335Y-76097532D01*
X155826338Y-76097534D01*
X156026550Y-76190894D01*
X156239932Y-76248070D01*
X156397123Y-76261822D01*
X156459998Y-76267323D01*
X156460000Y-76267323D01*
X156460002Y-76267323D01*
X156515017Y-76262509D01*
X156680068Y-76248070D01*
X156893450Y-76190894D01*
X157093662Y-76097534D01*
X157274620Y-75970826D01*
X157430826Y-75814620D01*
X157557534Y-75633662D01*
X157617618Y-75504811D01*
X157663790Y-75452371D01*
X157730983Y-75433219D01*
X157797865Y-75453435D01*
X157842382Y-75504811D01*
X157902464Y-75633658D01*
X157902468Y-75633666D01*
X158029170Y-75814615D01*
X158029175Y-75814621D01*
X158185378Y-75970824D01*
X158185384Y-75970829D01*
X158366333Y-76097531D01*
X158366335Y-76097532D01*
X158366338Y-76097534D01*
X158566550Y-76190894D01*
X158779932Y-76248070D01*
X158937123Y-76261822D01*
X158999998Y-76267323D01*
X159000000Y-76267323D01*
X159000002Y-76267323D01*
X159055017Y-76262509D01*
X159220068Y-76248070D01*
X159433450Y-76190894D01*
X159633662Y-76097534D01*
X159814620Y-75970826D01*
X159970826Y-75814620D01*
X160097534Y-75633662D01*
X160157618Y-75504811D01*
X160203790Y-75452371D01*
X160270983Y-75433219D01*
X160337865Y-75453435D01*
X160382382Y-75504811D01*
X160442464Y-75633658D01*
X160442468Y-75633666D01*
X160569170Y-75814615D01*
X160569175Y-75814621D01*
X160725378Y-75970824D01*
X160725384Y-75970829D01*
X160906333Y-76097531D01*
X160906335Y-76097532D01*
X160906338Y-76097534D01*
X161106550Y-76190894D01*
X161319932Y-76248070D01*
X161477123Y-76261822D01*
X161539998Y-76267323D01*
X161540000Y-76267323D01*
X161540002Y-76267323D01*
X161595017Y-76262509D01*
X161760068Y-76248070D01*
X161973450Y-76190894D01*
X162173662Y-76097534D01*
X162354620Y-75970826D01*
X162510826Y-75814620D01*
X162637534Y-75633662D01*
X162697618Y-75504811D01*
X162743790Y-75452371D01*
X162810983Y-75433219D01*
X162877865Y-75453435D01*
X162922382Y-75504811D01*
X162982464Y-75633658D01*
X162982468Y-75633666D01*
X163109170Y-75814615D01*
X163109175Y-75814621D01*
X163265378Y-75970824D01*
X163265384Y-75970829D01*
X163446333Y-76097531D01*
X163446335Y-76097532D01*
X163446338Y-76097534D01*
X163646550Y-76190894D01*
X163859932Y-76248070D01*
X164017123Y-76261822D01*
X164079998Y-76267323D01*
X164080000Y-76267323D01*
X164080002Y-76267323D01*
X164135017Y-76262509D01*
X164300068Y-76248070D01*
X164513450Y-76190894D01*
X164713662Y-76097534D01*
X164894620Y-75970826D01*
X165050826Y-75814620D01*
X165177534Y-75633662D01*
X165270894Y-75433450D01*
X165328070Y-75220068D01*
X165347323Y-75000000D01*
X165347323Y-74999997D01*
X167652677Y-74999997D01*
X167652677Y-75000002D01*
X167671929Y-75220062D01*
X167671930Y-75220070D01*
X167729104Y-75433445D01*
X167729105Y-75433447D01*
X167729106Y-75433450D01*
X167739067Y-75454811D01*
X167822466Y-75633662D01*
X167822468Y-75633666D01*
X167949170Y-75814615D01*
X167949175Y-75814621D01*
X168105378Y-75970824D01*
X168105384Y-75970829D01*
X168286333Y-76097531D01*
X168286335Y-76097532D01*
X168286338Y-76097534D01*
X168486550Y-76190894D01*
X168699932Y-76248070D01*
X168857123Y-76261822D01*
X168919998Y-76267323D01*
X168920000Y-76267323D01*
X168920002Y-76267323D01*
X168975017Y-76262509D01*
X169140068Y-76248070D01*
X169353450Y-76190894D01*
X169553662Y-76097534D01*
X169734620Y-75970826D01*
X169890826Y-75814620D01*
X170017534Y-75633662D01*
X170077618Y-75504811D01*
X170123790Y-75452371D01*
X170190983Y-75433219D01*
X170257865Y-75453435D01*
X170302382Y-75504811D01*
X170362464Y-75633658D01*
X170362468Y-75633666D01*
X170489170Y-75814615D01*
X170489175Y-75814621D01*
X170645378Y-75970824D01*
X170645384Y-75970829D01*
X170826333Y-76097531D01*
X170826335Y-76097532D01*
X170826338Y-76097534D01*
X171026550Y-76190894D01*
X171239932Y-76248070D01*
X171397123Y-76261822D01*
X171459998Y-76267323D01*
X171460000Y-76267323D01*
X171460002Y-76267323D01*
X171515017Y-76262509D01*
X171680068Y-76248070D01*
X171893450Y-76190894D01*
X172093662Y-76097534D01*
X172274620Y-75970826D01*
X172430826Y-75814620D01*
X172557534Y-75633662D01*
X172617618Y-75504811D01*
X172663790Y-75452371D01*
X172730983Y-75433219D01*
X172797865Y-75453435D01*
X172842382Y-75504811D01*
X172902464Y-75633658D01*
X172902468Y-75633666D01*
X173029170Y-75814615D01*
X173029175Y-75814621D01*
X173185378Y-75970824D01*
X173185384Y-75970829D01*
X173366333Y-76097531D01*
X173366335Y-76097532D01*
X173366338Y-76097534D01*
X173566550Y-76190894D01*
X173779932Y-76248070D01*
X173937123Y-76261822D01*
X173999998Y-76267323D01*
X174000000Y-76267323D01*
X174000002Y-76267323D01*
X174055017Y-76262509D01*
X174220068Y-76248070D01*
X174433450Y-76190894D01*
X174633662Y-76097534D01*
X174814620Y-75970826D01*
X174970826Y-75814620D01*
X175097534Y-75633662D01*
X175157618Y-75504811D01*
X175203790Y-75452371D01*
X175270983Y-75433219D01*
X175337865Y-75453435D01*
X175382382Y-75504811D01*
X175442464Y-75633658D01*
X175442468Y-75633666D01*
X175569170Y-75814615D01*
X175569175Y-75814621D01*
X175725378Y-75970824D01*
X175725384Y-75970829D01*
X175906333Y-76097531D01*
X175906335Y-76097532D01*
X175906338Y-76097534D01*
X176106550Y-76190894D01*
X176319932Y-76248070D01*
X176477123Y-76261822D01*
X176539998Y-76267323D01*
X176540000Y-76267323D01*
X176540002Y-76267323D01*
X176595017Y-76262509D01*
X176760068Y-76248070D01*
X176973450Y-76190894D01*
X177173662Y-76097534D01*
X177354620Y-75970826D01*
X177510826Y-75814620D01*
X177637534Y-75633662D01*
X177697618Y-75504811D01*
X177743790Y-75452371D01*
X177810983Y-75433219D01*
X177877865Y-75453435D01*
X177922382Y-75504811D01*
X177982464Y-75633658D01*
X177982468Y-75633666D01*
X178109170Y-75814615D01*
X178109175Y-75814621D01*
X178265378Y-75970824D01*
X178265384Y-75970829D01*
X178446333Y-76097531D01*
X178446335Y-76097532D01*
X178446338Y-76097534D01*
X178646550Y-76190894D01*
X178859932Y-76248070D01*
X179017123Y-76261822D01*
X179079998Y-76267323D01*
X179080000Y-76267323D01*
X179080002Y-76267323D01*
X179135017Y-76262509D01*
X179300068Y-76248070D01*
X179513450Y-76190894D01*
X179713662Y-76097534D01*
X179894620Y-75970826D01*
X180050826Y-75814620D01*
X180177534Y-75633662D01*
X180237618Y-75504811D01*
X180283790Y-75452371D01*
X180350983Y-75433219D01*
X180417865Y-75453435D01*
X180462382Y-75504811D01*
X180522464Y-75633658D01*
X180522468Y-75633666D01*
X180649170Y-75814615D01*
X180649175Y-75814621D01*
X180805378Y-75970824D01*
X180805384Y-75970829D01*
X180986333Y-76097531D01*
X180986335Y-76097532D01*
X180986338Y-76097534D01*
X181186550Y-76190894D01*
X181399932Y-76248070D01*
X181557123Y-76261822D01*
X181619998Y-76267323D01*
X181620000Y-76267323D01*
X181620002Y-76267323D01*
X181675017Y-76262509D01*
X181840068Y-76248070D01*
X182053450Y-76190894D01*
X182253662Y-76097534D01*
X182434620Y-75970826D01*
X182590826Y-75814620D01*
X182717534Y-75633662D01*
X182810894Y-75433450D01*
X182868070Y-75220068D01*
X182887323Y-75000000D01*
X182882948Y-74949997D01*
X182868070Y-74779937D01*
X182868070Y-74779932D01*
X182810894Y-74566550D01*
X182717534Y-74366339D01*
X182590826Y-74185380D01*
X182434620Y-74029174D01*
X182434616Y-74029171D01*
X182434615Y-74029170D01*
X182253666Y-73902468D01*
X182253662Y-73902466D01*
X182146436Y-73852466D01*
X182053450Y-73809106D01*
X182053447Y-73809105D01*
X182053445Y-73809104D01*
X181840070Y-73751930D01*
X181840062Y-73751929D01*
X181620002Y-73732677D01*
X181619998Y-73732677D01*
X181399937Y-73751929D01*
X181399929Y-73751930D01*
X181186554Y-73809104D01*
X181186548Y-73809107D01*
X180986340Y-73902465D01*
X180986338Y-73902466D01*
X180805377Y-74029175D01*
X180649175Y-74185377D01*
X180522466Y-74366338D01*
X180522465Y-74366340D01*
X180462382Y-74495189D01*
X180416209Y-74547628D01*
X180349016Y-74566780D01*
X180282135Y-74546564D01*
X180237618Y-74495189D01*
X180177534Y-74366340D01*
X180177533Y-74366338D01*
X180142524Y-74316340D01*
X180050826Y-74185380D01*
X179894620Y-74029174D01*
X179894616Y-74029171D01*
X179894615Y-74029170D01*
X179713666Y-73902468D01*
X179713662Y-73902466D01*
X179606436Y-73852466D01*
X179513450Y-73809106D01*
X179513447Y-73809105D01*
X179513445Y-73809104D01*
X179300070Y-73751930D01*
X179300062Y-73751929D01*
X179080002Y-73732677D01*
X179079998Y-73732677D01*
X178859937Y-73751929D01*
X178859929Y-73751930D01*
X178646554Y-73809104D01*
X178646548Y-73809107D01*
X178446340Y-73902465D01*
X178446338Y-73902466D01*
X178265377Y-74029175D01*
X178109175Y-74185377D01*
X177982466Y-74366338D01*
X177982465Y-74366340D01*
X177922382Y-74495189D01*
X177876209Y-74547628D01*
X177809016Y-74566780D01*
X177742135Y-74546564D01*
X177697618Y-74495189D01*
X177637534Y-74366340D01*
X177637533Y-74366338D01*
X177602524Y-74316340D01*
X177510826Y-74185380D01*
X177354620Y-74029174D01*
X177354616Y-74029171D01*
X177354615Y-74029170D01*
X177173666Y-73902468D01*
X177173662Y-73902466D01*
X177066436Y-73852466D01*
X176973450Y-73809106D01*
X176973447Y-73809105D01*
X176973445Y-73809104D01*
X176760070Y-73751930D01*
X176760062Y-73751929D01*
X176540002Y-73732677D01*
X176539998Y-73732677D01*
X176319937Y-73751929D01*
X176319929Y-73751930D01*
X176106554Y-73809104D01*
X176106548Y-73809107D01*
X175906340Y-73902465D01*
X175906338Y-73902466D01*
X175725377Y-74029175D01*
X175569175Y-74185377D01*
X175442466Y-74366338D01*
X175442465Y-74366340D01*
X175382382Y-74495189D01*
X175336209Y-74547628D01*
X175269016Y-74566780D01*
X175202135Y-74546564D01*
X175157618Y-74495189D01*
X175097534Y-74366340D01*
X175097533Y-74366338D01*
X175062524Y-74316340D01*
X174970826Y-74185380D01*
X174814620Y-74029174D01*
X174814616Y-74029171D01*
X174814615Y-74029170D01*
X174633666Y-73902468D01*
X174633662Y-73902466D01*
X174526436Y-73852466D01*
X174433450Y-73809106D01*
X174433447Y-73809105D01*
X174433445Y-73809104D01*
X174220070Y-73751930D01*
X174220062Y-73751929D01*
X174000002Y-73732677D01*
X173999998Y-73732677D01*
X173779937Y-73751929D01*
X173779929Y-73751930D01*
X173566554Y-73809104D01*
X173566548Y-73809107D01*
X173366340Y-73902465D01*
X173366338Y-73902466D01*
X173185377Y-74029175D01*
X173029175Y-74185377D01*
X172902466Y-74366338D01*
X172902465Y-74366340D01*
X172842382Y-74495189D01*
X172796209Y-74547628D01*
X172729016Y-74566780D01*
X172662135Y-74546564D01*
X172617618Y-74495189D01*
X172557534Y-74366340D01*
X172557533Y-74366338D01*
X172522524Y-74316340D01*
X172430826Y-74185380D01*
X172274620Y-74029174D01*
X172274616Y-74029171D01*
X172274615Y-74029170D01*
X172093666Y-73902468D01*
X172093662Y-73902466D01*
X171986436Y-73852466D01*
X171893450Y-73809106D01*
X171893447Y-73809105D01*
X171893445Y-73809104D01*
X171680070Y-73751930D01*
X171680062Y-73751929D01*
X171460002Y-73732677D01*
X171459998Y-73732677D01*
X171239937Y-73751929D01*
X171239929Y-73751930D01*
X171026554Y-73809104D01*
X171026548Y-73809107D01*
X170826340Y-73902465D01*
X170826338Y-73902466D01*
X170645377Y-74029175D01*
X170489175Y-74185377D01*
X170362466Y-74366338D01*
X170362465Y-74366340D01*
X170302382Y-74495189D01*
X170256209Y-74547628D01*
X170189016Y-74566780D01*
X170122135Y-74546564D01*
X170077618Y-74495189D01*
X170017534Y-74366340D01*
X170017533Y-74366338D01*
X169982524Y-74316340D01*
X169890826Y-74185380D01*
X169734620Y-74029174D01*
X169734616Y-74029171D01*
X169734615Y-74029170D01*
X169553666Y-73902468D01*
X169553662Y-73902466D01*
X169446436Y-73852466D01*
X169353450Y-73809106D01*
X169353447Y-73809105D01*
X169353445Y-73809104D01*
X169140070Y-73751930D01*
X169140062Y-73751929D01*
X168920002Y-73732677D01*
X168919998Y-73732677D01*
X168699937Y-73751929D01*
X168699929Y-73751930D01*
X168486554Y-73809104D01*
X168486548Y-73809107D01*
X168286340Y-73902465D01*
X168286338Y-73902466D01*
X168105377Y-74029175D01*
X167949175Y-74185377D01*
X167822466Y-74366338D01*
X167822465Y-74366340D01*
X167729107Y-74566548D01*
X167729104Y-74566554D01*
X167671930Y-74779929D01*
X167671929Y-74779937D01*
X167652677Y-74999997D01*
X165347323Y-74999997D01*
X165342948Y-74949997D01*
X165328070Y-74779937D01*
X165328070Y-74779932D01*
X165270894Y-74566550D01*
X165177534Y-74366339D01*
X165050826Y-74185380D01*
X164894620Y-74029174D01*
X164894616Y-74029171D01*
X164894615Y-74029170D01*
X164713666Y-73902468D01*
X164713662Y-73902466D01*
X164606436Y-73852466D01*
X164513450Y-73809106D01*
X164513447Y-73809105D01*
X164513445Y-73809104D01*
X164300070Y-73751930D01*
X164300062Y-73751929D01*
X164080002Y-73732677D01*
X164079998Y-73732677D01*
X163859937Y-73751929D01*
X163859929Y-73751930D01*
X163646554Y-73809104D01*
X163646548Y-73809107D01*
X163446340Y-73902465D01*
X163446338Y-73902466D01*
X163265377Y-74029175D01*
X163109175Y-74185377D01*
X162982466Y-74366338D01*
X162982465Y-74366340D01*
X162922382Y-74495189D01*
X162876209Y-74547628D01*
X162809016Y-74566780D01*
X162742135Y-74546564D01*
X162697618Y-74495189D01*
X162637534Y-74366340D01*
X162637533Y-74366338D01*
X162602524Y-74316340D01*
X162510826Y-74185380D01*
X162354620Y-74029174D01*
X162354616Y-74029171D01*
X162354615Y-74029170D01*
X162173666Y-73902468D01*
X162173662Y-73902466D01*
X162066436Y-73852466D01*
X161973450Y-73809106D01*
X161973447Y-73809105D01*
X161973445Y-73809104D01*
X161760070Y-73751930D01*
X161760062Y-73751929D01*
X161540002Y-73732677D01*
X161539998Y-73732677D01*
X161319937Y-73751929D01*
X161319929Y-73751930D01*
X161106554Y-73809104D01*
X161106548Y-73809107D01*
X160906340Y-73902465D01*
X160906338Y-73902466D01*
X160725377Y-74029175D01*
X160569175Y-74185377D01*
X160442466Y-74366338D01*
X160442465Y-74366340D01*
X160382382Y-74495189D01*
X160336209Y-74547628D01*
X160269016Y-74566780D01*
X160202135Y-74546564D01*
X160157618Y-74495189D01*
X160097534Y-74366340D01*
X160097533Y-74366338D01*
X160062524Y-74316340D01*
X159970826Y-74185380D01*
X159814620Y-74029174D01*
X159814616Y-74029171D01*
X159814615Y-74029170D01*
X159633666Y-73902468D01*
X159633662Y-73902466D01*
X159526436Y-73852466D01*
X159433450Y-73809106D01*
X159433447Y-73809105D01*
X159433445Y-73809104D01*
X159220070Y-73751930D01*
X159220062Y-73751929D01*
X159000002Y-73732677D01*
X158999998Y-73732677D01*
X158779937Y-73751929D01*
X158779929Y-73751930D01*
X158566554Y-73809104D01*
X158566548Y-73809107D01*
X158366340Y-73902465D01*
X158366338Y-73902466D01*
X158185377Y-74029175D01*
X158029175Y-74185377D01*
X157902466Y-74366338D01*
X157902465Y-74366340D01*
X157842382Y-74495189D01*
X157796209Y-74547628D01*
X157729016Y-74566780D01*
X157662135Y-74546564D01*
X157617618Y-74495189D01*
X157557534Y-74366340D01*
X157557533Y-74366338D01*
X157522524Y-74316340D01*
X157430826Y-74185380D01*
X157274620Y-74029174D01*
X157274616Y-74029171D01*
X157274615Y-74029170D01*
X157093666Y-73902468D01*
X157093662Y-73902466D01*
X156986436Y-73852466D01*
X156893450Y-73809106D01*
X156893447Y-73809105D01*
X156893445Y-73809104D01*
X156680070Y-73751930D01*
X156680062Y-73751929D01*
X156460002Y-73732677D01*
X156459998Y-73732677D01*
X156239937Y-73751929D01*
X156239929Y-73751930D01*
X156026554Y-73809104D01*
X156026548Y-73809107D01*
X155826340Y-73902465D01*
X155826338Y-73902466D01*
X155645377Y-74029175D01*
X155489175Y-74185377D01*
X155362466Y-74366338D01*
X155362465Y-74366340D01*
X155302382Y-74495189D01*
X155256209Y-74547628D01*
X155189016Y-74566780D01*
X155122135Y-74546564D01*
X155077618Y-74495189D01*
X155017534Y-74366340D01*
X155017533Y-74366338D01*
X154982524Y-74316340D01*
X154890826Y-74185380D01*
X154734620Y-74029174D01*
X154734616Y-74029171D01*
X154734615Y-74029170D01*
X154553666Y-73902468D01*
X154553662Y-73902466D01*
X154446436Y-73852466D01*
X154353450Y-73809106D01*
X154353447Y-73809105D01*
X154353445Y-73809104D01*
X154140070Y-73751930D01*
X154140062Y-73751929D01*
X153920002Y-73732677D01*
X153919998Y-73732677D01*
X153699937Y-73751929D01*
X153699929Y-73751930D01*
X153486554Y-73809104D01*
X153486548Y-73809107D01*
X153286340Y-73902465D01*
X153286338Y-73902466D01*
X153105377Y-74029175D01*
X152949175Y-74185377D01*
X152822466Y-74366338D01*
X152822465Y-74366340D01*
X152762382Y-74495189D01*
X152716209Y-74547628D01*
X152649016Y-74566780D01*
X152582135Y-74546564D01*
X152537618Y-74495189D01*
X152477534Y-74366340D01*
X152477533Y-74366338D01*
X152442524Y-74316340D01*
X152350826Y-74185380D01*
X152194620Y-74029174D01*
X152194616Y-74029171D01*
X152194615Y-74029170D01*
X152013666Y-73902468D01*
X152013662Y-73902466D01*
X151906436Y-73852466D01*
X151813450Y-73809106D01*
X151813447Y-73809105D01*
X151813445Y-73809104D01*
X151600070Y-73751930D01*
X151600062Y-73751929D01*
X151380002Y-73732677D01*
X151379998Y-73732677D01*
X151159937Y-73751929D01*
X151159929Y-73751930D01*
X150946554Y-73809104D01*
X150946548Y-73809107D01*
X150746340Y-73902465D01*
X150746338Y-73902466D01*
X150565377Y-74029175D01*
X150409175Y-74185377D01*
X150282466Y-74366338D01*
X150282465Y-74366340D01*
X150189107Y-74566548D01*
X150189104Y-74566554D01*
X150131930Y-74779929D01*
X150131929Y-74779937D01*
X150112677Y-74999997D01*
X147702948Y-74999997D01*
X147707323Y-74950002D01*
X147707323Y-74949997D01*
X147700103Y-74867474D01*
X147688070Y-74729932D01*
X147630894Y-74516550D01*
X147537534Y-74316339D01*
X147410826Y-74135380D01*
X147254620Y-73979174D01*
X147254616Y-73979171D01*
X147254615Y-73979170D01*
X147073666Y-73852468D01*
X147073662Y-73852466D01*
X147073660Y-73852465D01*
X146873450Y-73759106D01*
X146873447Y-73759105D01*
X146873445Y-73759104D01*
X146660070Y-73701930D01*
X146660062Y-73701929D01*
X146440002Y-73682677D01*
X146439998Y-73682677D01*
X146219937Y-73701929D01*
X146219929Y-73701930D01*
X146006554Y-73759104D01*
X146006548Y-73759107D01*
X145806340Y-73852465D01*
X145806338Y-73852466D01*
X145625377Y-73979175D01*
X145469175Y-74135377D01*
X145342466Y-74316338D01*
X145342465Y-74316340D01*
X145282382Y-74445189D01*
X145236209Y-74497628D01*
X145169016Y-74516780D01*
X145102135Y-74496564D01*
X145057618Y-74445189D01*
X144997534Y-74316340D01*
X144997533Y-74316338D01*
X144870827Y-74135381D01*
X144870823Y-74135377D01*
X144714620Y-73979174D01*
X144714616Y-73979171D01*
X144714615Y-73979170D01*
X144533666Y-73852468D01*
X144533662Y-73852466D01*
X144533660Y-73852465D01*
X144333450Y-73759106D01*
X144333447Y-73759105D01*
X144333445Y-73759104D01*
X144120070Y-73701930D01*
X144120062Y-73701929D01*
X143900002Y-73682677D01*
X143899998Y-73682677D01*
X143679937Y-73701929D01*
X143679929Y-73701930D01*
X143466554Y-73759104D01*
X143466548Y-73759107D01*
X143266340Y-73852465D01*
X143266338Y-73852466D01*
X143085377Y-73979175D01*
X142929175Y-74135377D01*
X142802466Y-74316338D01*
X142802465Y-74316340D01*
X142742382Y-74445189D01*
X142696209Y-74497628D01*
X142629016Y-74516780D01*
X142562135Y-74496564D01*
X142517618Y-74445189D01*
X142457534Y-74316340D01*
X142457533Y-74316338D01*
X142330827Y-74135381D01*
X142330823Y-74135377D01*
X142174620Y-73979174D01*
X142174616Y-73979171D01*
X142174615Y-73979170D01*
X141993666Y-73852468D01*
X141993662Y-73852466D01*
X141993660Y-73852465D01*
X141793450Y-73759106D01*
X141793447Y-73759105D01*
X141793445Y-73759104D01*
X141580070Y-73701930D01*
X141580062Y-73701929D01*
X141360002Y-73682677D01*
X141359998Y-73682677D01*
X141139937Y-73701929D01*
X141139929Y-73701930D01*
X140926554Y-73759104D01*
X140926548Y-73759107D01*
X140726340Y-73852465D01*
X140726338Y-73852466D01*
X140545377Y-73979175D01*
X140389175Y-74135377D01*
X140262466Y-74316338D01*
X140262465Y-74316340D01*
X140202382Y-74445189D01*
X140156209Y-74497628D01*
X140089016Y-74516780D01*
X140022135Y-74496564D01*
X139977618Y-74445189D01*
X139917534Y-74316340D01*
X139917533Y-74316338D01*
X139790827Y-74135381D01*
X139790823Y-74135377D01*
X139634620Y-73979174D01*
X139634616Y-73979171D01*
X139634615Y-73979170D01*
X139453666Y-73852468D01*
X139453662Y-73852466D01*
X139453660Y-73852465D01*
X139253450Y-73759106D01*
X139253447Y-73759105D01*
X139253445Y-73759104D01*
X139040070Y-73701930D01*
X139040062Y-73701929D01*
X138820002Y-73682677D01*
X138819998Y-73682677D01*
X138599937Y-73701929D01*
X138599929Y-73701930D01*
X138386554Y-73759104D01*
X138386548Y-73759107D01*
X138186340Y-73852465D01*
X138186338Y-73852466D01*
X138005377Y-73979175D01*
X137849175Y-74135377D01*
X137722466Y-74316338D01*
X137722465Y-74316340D01*
X137662382Y-74445189D01*
X137616209Y-74497628D01*
X137549016Y-74516780D01*
X137482135Y-74496564D01*
X137437618Y-74445189D01*
X137377534Y-74316340D01*
X137377533Y-74316338D01*
X137250827Y-74135381D01*
X137250823Y-74135377D01*
X137094620Y-73979174D01*
X137094616Y-73979171D01*
X137094615Y-73979170D01*
X136913666Y-73852468D01*
X136913662Y-73852466D01*
X136913660Y-73852465D01*
X136713450Y-73759106D01*
X136713447Y-73759105D01*
X136713445Y-73759104D01*
X136500070Y-73701930D01*
X136500062Y-73701929D01*
X136280002Y-73682677D01*
X136279998Y-73682677D01*
X136059937Y-73701929D01*
X136059929Y-73701930D01*
X135846554Y-73759104D01*
X135846548Y-73759107D01*
X135646340Y-73852465D01*
X135646338Y-73852466D01*
X135465377Y-73979175D01*
X135309175Y-74135377D01*
X135182466Y-74316338D01*
X135182465Y-74316340D01*
X135122382Y-74445189D01*
X135076209Y-74497628D01*
X135009016Y-74516780D01*
X134942135Y-74496564D01*
X134897618Y-74445189D01*
X134837534Y-74316340D01*
X134837533Y-74316338D01*
X134710827Y-74135381D01*
X134710823Y-74135377D01*
X134554620Y-73979174D01*
X134554616Y-73979171D01*
X134554615Y-73979170D01*
X134373666Y-73852468D01*
X134373662Y-73852466D01*
X134373660Y-73852465D01*
X134173450Y-73759106D01*
X134173447Y-73759105D01*
X134173445Y-73759104D01*
X133960070Y-73701930D01*
X133960062Y-73701929D01*
X133740002Y-73682677D01*
X133739998Y-73682677D01*
X133519937Y-73701929D01*
X133519929Y-73701930D01*
X133306554Y-73759104D01*
X133306548Y-73759107D01*
X133106340Y-73852465D01*
X133106338Y-73852466D01*
X132925377Y-73979175D01*
X132769175Y-74135377D01*
X132642466Y-74316338D01*
X132642465Y-74316340D01*
X132549107Y-74516548D01*
X132549104Y-74516554D01*
X132491930Y-74729929D01*
X132491929Y-74729937D01*
X132472677Y-74949997D01*
X132000500Y-74949997D01*
X132000500Y-73124500D01*
X132020185Y-73057461D01*
X132072989Y-73011706D01*
X132124500Y-73000500D01*
X183625500Y-73000500D01*
X183692539Y-73020185D01*
G37*
%TD.AperFunction*%
%TD*%
M02*
