M48
; DRILL file {KiCad 8.0.5} date 2024-10-27T11:23:12+0100
; FORMAT={-:-/ absolute / inch / decimal}
; #@! TF.CreationDate,2024-10-27T11:23:12+01:00
; #@! TF.GenerationSoftware,Kicad,Pcbnew,8.0.5
; #@! TF.FileFunction,Plated,1,2,PTH
FMAT,2
INCH
; #@! TA.AperFunction,Plated,PTH,ViaDrill
T1C0.0118
; #@! TA.AperFunction,Plated,PTH,ComponentDrill
T2C0.0295
%
G90
G05
T1
X5.2657Y-3.4449
X5.3642Y-3.3268
X5.4134Y-3.189
X5.5118Y-3.189
X5.561Y-3.3957
X5.6004Y-3.7402
X5.6201Y-3.2185
X5.6693Y-3.4154
X5.7185Y-3.189
X5.8169Y-3.3563
X5.9547Y-3.4449
X6.0236Y-3.7402
X6.0531Y-3.3268
X6.1122Y-3.2677
X6.2205Y-3.2382
X6.2598Y-3.3858
X6.3189Y-3.2185
X6.3583Y-3.4154
X6.4173Y-3.189
X6.4665Y-3.7402
X6.6437Y-3.2677
X6.6504Y-3.439
X6.752Y-3.3268
X6.8504Y-3.3563
X6.8602Y-3.2421
X6.9488Y-3.3858
X6.9685Y-3.7402
X7.0276Y-3.2185
X7.0472Y-3.4154
X7.0965Y-3.189
X7.1949Y-3.189
T2
G00X5.2752Y-2.9508
M15
G01X5.2555Y-2.9508
M16
G05
G00X5.2555Y-3.5531
M15
G01X5.2752Y-3.5531
M16
G05
G00X5.3752Y-2.9508
M15
G01X5.3555Y-2.9508
M16
G05
G00X5.3555Y-3.5531
M15
G01X5.3752Y-3.5531
M16
G05
G00X5.4752Y-2.9508
M15
G01X5.4555Y-2.9508
M16
G05
G00X5.4555Y-3.5531
M15
G01X5.4752Y-3.5531
M16
G05
G00X5.5752Y-2.9508
M15
G01X5.5555Y-2.9508
M16
G05
G00X5.5555Y-3.5531
M15
G01X5.5752Y-3.5531
M16
G05
G00X5.6752Y-2.9508
M15
G01X5.6555Y-2.9508
M16
G05
G00X5.6555Y-3.5531
M15
G01X5.6752Y-3.5531
M16
G05
G00X5.7752Y-2.9508
M15
G01X5.7555Y-2.9508
M16
G05
G00X5.7555Y-3.5531
M15
G01X5.7752Y-3.5531
M16
G05
G00X5.9697Y-2.9528
M15
G01X5.95Y-2.9528
M16
G05
G00X5.95Y-3.5551
M15
G01X5.9697Y-3.5551
M16
G05
G00X6.0697Y-2.9528
M15
G01X6.05Y-2.9528
M16
G05
G00X6.05Y-3.5551
M15
G01X6.0697Y-3.5551
M16
G05
G00X6.1697Y-2.9528
M15
G01X6.15Y-2.9528
M16
G05
G00X6.15Y-3.5551
M15
G01X6.1697Y-3.5551
M16
G05
G00X6.2697Y-2.9528
M15
G01X6.25Y-2.9528
M16
G05
G00X6.25Y-3.5551
M15
G01X6.2697Y-3.5551
M16
G05
G00X6.3697Y-2.9528
M15
G01X6.35Y-2.9528
M16
G05
G00X6.35Y-3.5551
M15
G01X6.3697Y-3.5551
M16
G05
G00X6.4697Y-2.9528
M15
G01X6.45Y-2.9528
M16
G05
G00X6.45Y-3.5551
M15
G01X6.4697Y-3.5551
M16
G05
G00X6.6602Y-2.9528
M15
G01X6.6406Y-2.9528
M16
G05
G00X6.6406Y-3.5551
M15
G01X6.6602Y-3.5551
M16
G05
G00X6.7602Y-2.9528
M15
G01X6.7406Y-2.9528
M16
G05
G00X6.7406Y-3.5551
M15
G01X6.7602Y-3.5551
M16
G05
G00X6.8602Y-2.9528
M15
G01X6.8406Y-2.9528
M16
G05
G00X6.8406Y-3.5551
M15
G01X6.8602Y-3.5551
M16
G05
G00X6.9602Y-2.9528
M15
G01X6.9406Y-2.9528
M16
G05
G00X6.9406Y-3.5551
M15
G01X6.9602Y-3.5551
M16
G05
G00X7.0602Y-2.9528
M15
G01X7.0406Y-2.9528
M16
G05
G00X7.0406Y-3.5551
M15
G01X7.0602Y-3.5551
M16
G05
G00X7.1602Y-2.9528
M15
G01X7.1406Y-2.9528
M16
G05
G00X7.1406Y-3.5551
M15
G01X7.1602Y-3.5551
M16
G05
M30
